<?xml version="1.0" encoding="UTF-8"?>
<svg version="1.1" xmlns="http://www.w3.org/2000/svg" width="150" height="150">
<path d="M0 0 C6.93 0 13.86 0 21 0 C21 1.98 21 3.96 21 6 C21.66 6 22.32 6 23 6 C23.495 15.405 23.495 15.405 24 25 C24.33 24.34 24.66 23.68 25 23 C33.58 23 42.16 23 51 23 C53.53294402 29.33236004 55.93464917 35.52768192 58 42 C58.29310059 42.91281738 58.58620117 43.82563477 58.88818359 44.76611328 C59.82593977 47.69678476 60.75765355 50.62931006 61.6875 53.5625 C62.00783203 54.57119141 62.32816406 55.57988281 62.65820312 56.61914062 C63.43937389 59.07924559 64.21976799 61.53959715 65 64 C65.33 59.38 65.66 54.76 66 50 C72.6 50 79.2 50 86 50 C86.04970073 56.79523674 86.08586153 63.59036598 86.10986328 70.38574219 C86.11987684 72.69402919 86.13349163 75.00230364 86.15087891 77.31054688 C86.17533227 80.64195872 86.18652989 83.9732018 86.1953125 87.3046875 C86.21079636 88.834991 86.21079636 88.834991 86.22659302 90.39620972 C86.22829149 101.41779938 84.86542278 109.02248058 77.8125 117.6875 C71.52572812 122.85662355 63.0040014 124.23475423 55 124 C51.54726059 123.275294 48.29141579 122.26373231 45 121 C43.9823597 115.98391475 43.88143566 111.21391694 43.9375 106.125 C43.94201172 105.34125 43.94652344 104.5575 43.95117188 103.75 C43.96285907 101.83329986 43.98079092 99.91663952 44 98 C45.60294922 98.72896484 45.60294922 98.72896484 47.23828125 99.47265625 C51.50984103 101.29718103 54.34813075 101.53382106 59 101 C60.32 99.68 61.64 98.36 63 97 C58.71 97 54.42 97 50 97 C47 88.375 47 88.375 47 85 C40.73 85 34.46 85 28 85 C27.690625 86.60875 27.38125 88.2175 27.0625 89.875 C26.125 94.75 26.125 94.75 25 97 C17.74 97 10.48 97 3 97 C3.66 95.02 4.32 93.04 5 91 C4.01 91 3.02 91 2 91 C2.19335938 90.29875 2.38671875 89.5975 2.5859375 88.875 C4.125617 83.26507866 5.61417657 77.64989553 7 72 C6.49210937 72.16113281 5.98421875 72.32226562 5.4609375 72.48828125 C2.156656 73.17536201 -1.00149805 73.17066616 -4.375 73.1875 C-5.66148438 73.20167969 -6.94796875 73.21585937 -8.2734375 73.23046875 C-11.88452711 73.00714141 -14.64761667 72.31293032 -18 71 C-18 70.34 -18 69.68 -18 69 C-18.99 68.67 -19.98 68.34 -21 68 C-21 61.73 -21 55.46 -21 49 C-19.02 49.66 -17.04 50.32 -15 51 C-10.59480178 51.61302111 -7.17624911 51.8527806 -3.5 49.1875 C-1.30976867 45.99341264 -0.87040685 43.39599869 -0.79467773 39.62036133 C-0.77473251 38.73967484 -0.75478729 37.85898834 -0.73423767 36.95161438 C-0.70916893 35.53117073 -0.70916893 35.53117073 -0.68359375 34.08203125 C-0.66281265 33.10965012 -0.64203156 32.13726898 -0.62062073 31.13542175 C-0.55521252 28.02785335 -0.49628071 24.92020015 -0.4375 21.8125 C-0.39430649 19.70637142 -0.35069193 17.60025144 -0.30664062 15.49414062 C-0.19874733 10.32951276 -0.09960877 5.16482093 0 0 Z M37 48 C35.68 53.28 34.36 58.56 33 64 C35.64 64 38.28 64 41 64 C40.71653722 62.08210287 40.4228972 60.16570817 40.125 58.25 C39.96257812 57.18265625 39.80015625 56.1153125 39.6328125 55.015625 C39.07659208 51.72986591 39.07659208 51.72986591 37 48 Z " fill="#213164" transform="translate(41,12)"/>
<path d="M0 0 C6.6 0 13.2 0 20 0 C20.04970073 6.79523674 20.08586153 13.59036598 20.10986328 20.38574219 C20.11987684 22.69402919 20.13349163 25.00230364 20.15087891 27.31054688 C20.17533227 30.64195872 20.18652989 33.9732018 20.1953125 37.3046875 C20.20563507 38.32488983 20.21595764 39.34509216 20.22659302 40.39620972 C20.22829149 51.41779938 18.86542278 59.02248058 11.8125 67.6875 C5.52572812 72.85662355 -2.9959986 74.23475423 -11 74 C-14.45273941 73.275294 -17.70858421 72.26373231 -21 71 C-21.625 68.625 -21.625 68.625 -22 66 C-21.01 65.01 -21.01 65.01 -20 64 C-19.01 64.33 -18.02 64.66 -17 65 C-17.495 65.99 -17.495 65.99 -18 67 C-17.34 67 -16.68 67 -16 67 C-16 67.66 -16 68.32 -16 69 C-13.525 68.505 -13.525 68.505 -11 68 C-12.32 67.67 -13.64 67.34 -15 67 C-12.03 66.01 -12.03 66.01 -9 65 C-9 66.32 -9 67.64 -9 69 C-6.69 69 -4.38 69 -2 69 C-2.33 68.01 -2.66 67.02 -3 66 C-2.67 65.34 -2.34 64.68 -2 64 C-1.34 64.33 -0.68 64.66 0 65 C2.0480428 64.9049261 2.0480428 64.9049261 4 64 C5.28436734 62.0162233 5.28436734 62.0162233 6 60 C8 61 8 61 10 64 C10.28875 63.401875 10.5775 62.80375 10.875 62.1875 C12 60 12 60 14 57 C13.67 56.34 13.34 55.68 13 55 C13.99 54.01 14.98 53.02 16 52 C15.01 52 14.02 52 13 52 C13 51.01 13 50.02 13 49 C13.66 49 14.32 49 15 49 C14.34 46.03 13.68 43.06 13 40 C14.32 40 15.64 40 17 40 C16.525625 39.5875 16.05125 39.175 15.5625 38.75 C13.78248881 36.75638747 13.31938461 35.634923 13 33 C13.4375 30.75 13.4375 30.75 14 29 C13.34 29 12.68 29 12 29 C11.34 29.66 10.68 30.32 10 31 C10.66 32.65 11.32 34.3 12 36 C11.01 36.33 10.02 36.66 9 37 C8.67 36.34 8.34 35.68 8 35 C8 35.99 8 36.98 8 38 C8.66 38 9.32 38 10 38 C10 38.99 10 39.98 10 41 C8.68 41 7.36 41 6 41 C5.7506643 39.39884424 5.52621352 37.79379841 5.3125 36.1875 C5.12107422 34.84751953 5.12107422 34.84751953 4.92578125 33.48046875 C5 31 5 31 6.48046875 29.17578125 C6.98191406 28.78777344 7.48335937 28.39976563 8 28 C6.68 28 5.36 28 4 28 C3.67 27.01 3.34 26.02 3 25 C4.4375 22.3125 4.4375 22.3125 6 20 C4.35 19.34 2.7 18.68 1 18 C1 16.02 1 14.04 1 12 C1.66 12 2.32 12 3 12 C3.33 11.34 3.66 10.68 4 10 C4.33 11.32 4.66 12.64 5 14 C5.33 10.04 5.66 6.08 6 2 C5.01 3.485 5.01 3.485 4 5 C3.34 4.67 2.68 4.34 2 4 C2 3.34 2 2.68 2 2 C1.34 2 0.68 2 0 2 C0 1.34 0 0.68 0 0 Z " fill="#1E2653" transform="translate(107,62)"/>
<path d="M0 0 C1.32 0.66 2.64 1.32 4 2 C3.7215625 3.0828125 3.7215625 3.0828125 3.4375 4.1875 C2.96599991 7.21857203 2.98375009 9.10759641 4 12 C5.96758273 13.36020151 5.96758273 13.36020151 8 14 C4 14 4 14 2 13 C2.66 15.97 3.32 18.94 4 22 C3.34 22 2.68 22 2 22 C2 22.99 2 23.98 2 25 C2.99 25 3.98 25 5 25 C4 28 4 28 3 29.9375 C1.91928185 31.95119273 1.91928185 31.95119273 1.5625 34.125 C1 36 1 36 -2 38 C-3.485 35.525 -3.485 35.525 -5 33 C-5.33 35.31 -5.66 37.62 -6 40 C-6.33 39.01 -6.66 38.02 -7 37 C-7.99 37 -8.98 37 -10 37 C-10.66 38.32 -11.32 39.64 -12 41 C-12.33 39.68 -12.66 38.36 -13 37 C-13 38.65 -13 40.3 -13 42 C-16.465 42.495 -16.465 42.495 -20 43 C-20.33 41.68 -20.66 40.36 -21 39 C-22.485 39.495 -22.485 39.495 -24 40 C-23.34 40.33 -22.68 40.66 -22 41 C-22.33 41.66 -22.66 42.32 -23 43 C-24.32 42.67 -25.64 42.34 -27 42 C-27 41.34 -27 40.68 -27 40 C-27.66 40 -28.32 40 -29 40 C-29 39.34 -29 38.68 -29 38 C-29.66 37.67 -30.32 37.34 -31 37 C-31.33 37.99 -31.66 38.98 -32 40 C-33.65497356 36.69005287 -33.10084335 33.00877 -33.0625 29.375 C-33.05798828 28.57320312 -33.05347656 27.77140625 -33.04882812 26.9453125 C-33.03703168 24.96350994 -33.01909605 22.98174567 -33 21 C-31.93136719 21.48984375 -30.86273438 21.9796875 -29.76171875 22.484375 C-25.54561958 24.28839428 -22.57953234 24.3002972 -18 24 C-17.21625 23.95875 -16.4325 23.9175 -15.625 23.875 C-13.63783397 23.03484589 -13.63783397 23.03484589 -12.875 20 C-12.58625 19.01 -12.2975 18.02 -12 17 C-11.34 16.67 -10.68 16.34 -10 16 C-11.32 15.34 -12.64 14.68 -14 14 C-13.34 12.02 -12.68 10.04 -12 8 C-9.03 8.495 -9.03 8.495 -6 9 C-5.67 7.68 -5.34 6.36 -5 5 C-4.855625 6.11375 -4.71125 7.2275 -4.5625 8.375 C-4.21627965 11.82142047 -4.21627965 11.82142047 -3 14 C-2.34 14 -1.68 14 -1 14 C-1 13.01 -1 12.02 -1 11 C-1.66 11 -2.32 11 -3 11 C-3.33 9.02 -3.66 7.04 -4 5 C-2 7 -2 7 -2 10 C-1.34 9.34 -0.68 8.68 0 8 C-0.66 6.35 -1.32 4.7 -2 3 C-1.34 2.67 -0.68 2.34 0 2 C0 1.34 0 0.68 0 0 Z " fill="#1F285B" transform="translate(118,89)"/>
<path d="M0 0 C7.59 0 15.18 0 23 0 C29.91891892 17.2972973 29.91891892 17.2972973 31 24 C30.01 24.66 29.02 25.32 28 26 C27.67 26.33 27.34 26.66 27 27 C26.34 27 25.68 27 25 27 C25 26.01 25 25.02 25 24 C24.34 24 23.68 24 23 24 C22.67 24.66 22.34 25.32 22 26 C21.67 26 21.34 26 21 26 C20.67 26.66 20.34 27.32 20 28 C18 28 16 28 14 28 C14.4640625 29.546875 14.4640625 29.546875 14.9375 31.125 C15.87502812 34.38972557 16.50772702 37.63613462 17 41 C15.02 41.495 15.02 41.495 13 42 C12.01 37.71 11.02 33.42 10 29 C9.54625 30.216875 9.0925 31.43375 8.625 32.6875 C7.45547059 35.8080927 6.25437562 38.91230616 5 42 C4.34 41.67 3.68 41.34 3 41 C3 38.03 3 35.06 3 32 C2.34 32.66 1.68 33.32 1 34 C0.505 32.515 0.505 32.515 0 31 C1.65 30.67 3.3 30.34 5 30 C4.67 28.35 4.34 26.7 4 25 C4.66 24.67 5.32 24.34 6 24 C5.34 20.37 4.68 16.74 4 13 C2.02 13 0.04 13 -2 13 C-1.47916667 11.07942708 -0.95833333 9.15885417 -0.4375 7.23828125 C0.15986025 4.56224988 0.15986025 4.56224988 0 0 Z " fill="#1F2C5D" transform="translate(69,35)"/>
<path d="M0 0 C0 0.66 0 1.32 0 2 C1.98 1.34 3.96 0.68 6 0 C6 2.31 6 4.62 6 7 C5.34 7 4.68 7 4 7 C4 7.99 4 8.98 4 10 C4.66 9.34 5.32 8.68 6 8 C7 9 7 9 7.09765625 11.94140625 C7.08605469 13.13636719 7.07445313 14.33132812 7.0625 15.5625 C7.05347656 16.76003906 7.04445313 17.95757813 7.03515625 19.19140625 C7.02355469 20.11824219 7.01195313 21.04507813 7 22 C6.01 22.33 5.02 22.66 4 23 C4.99 23.99 5.98 24.98 7 26 C6.67 26.99 6.34 27.98 6 29 C5.01 28.34 4.02 27.68 3 27 C2.01 26.67 1.02 26.34 0 26 C0.33 27.65 0.66 29.3 1 31 C-0.98 31.33 -2.96 31.66 -5 32 C-5 33.32 -5 34.64 -5 36 C-6.32 36 -7.64 36 -9 36 C-9.33 37.32 -9.66 38.64 -10 40 C-11.98 40.495 -11.98 40.495 -14 41 C-14.04956835 36.24944568 -14.08579909 31.49904312 -14.10986328 26.74829102 C-14.11989896 25.13335547 -14.13353051 23.518438 -14.15087891 21.90356445 C-14.17523465 19.57759125 -14.18650747 17.25185905 -14.1953125 14.92578125 C-14.20563507 14.20787918 -14.21595764 13.48997711 -14.22659302 12.75032043 C-14.22748324 8.74107144 -13.96560232 5.53684275 -12 2 C-7.95371035 0.06881631 -4.44176394 -0.21151257 0 0 Z " fill="#203266" transform="translate(55,13)"/>
<path d="M0 0 C3.5532631 2.71965299 4.42132182 6.59059113 5.6875 10.6875 C5.91244141 11.38939453 6.13738281 12.09128906 6.36914062 12.81445312 C6.92096357 14.54036743 7.46159058 16.26985433 8 18 C8.33 14.04 8.66 10.08 9 6 C10.32 6.33 11.64 6.66 13 7 C13.66 6.34 14.32 5.68 15 5 C16.09651823 8.41139003 15.94215473 11.20655581 15.5625 14.75 C15.46066406 15.73484375 15.35882813 16.7196875 15.25390625 17.734375 C15.17011719 18.48203125 15.08632812 19.2296875 15 20 C14.01 20 13.02 20 12 20 C12 18.68 12 17.36 12 16 C11.34 16 10.68 16 10 16 C10 17.98 10 19.96 10 22 C11.98 22.66 13.96 23.32 16 24 C15.01 25.65 14.02 27.3 13 29 C13.66 29.33 14.32 29.66 15 30 C15 30.66 15 31.32 15 32 C15.66 32 16.32 32 17 32 C16.67 32.99 16.34 33.98 16 35 C12.4375 36.1875 12.4375 36.1875 9 37 C8.34 36.34 7.68 35.68 7 35 C6.01 35 5.02 35 4 35 C4 33.68 4 32.36 4 31 C2.35 31.33 0.7 31.66 -1 32 C-1 31.01 -1 30.02 -1 29 C-1.66 29 -2.32 29 -3 29 C-2.690625 27.824375 -2.690625 27.824375 -2.375 26.625 C-2.25125 25.75875 -2.1275 24.8925 -2 24 C-2.66 23.34 -3.32 22.68 -4 22 C-4 21.01 -4 20.02 -4 19 C-3.34 19 -2.68 19 -2 19 C-2 16.36 -2 13.72 -2 11 C-3.32 11 -4.64 11 -6 11 C-6.33 11.66 -6.66 12.32 -7 13 C-7 12.34 -7 11.68 -7 11 C-7.66 10.67 -8.32 10.34 -9 10 C-8.34 10 -7.68 10 -7 10 C-7.66 9.01 -8.32 8.02 -9 7 C-9.99 7.495 -9.99 7.495 -11 8 C-11 7.34 -11 6.68 -11 6 C-11.66 6 -12.32 6 -13 6 C-12.67 8.31 -12.34 10.62 -12 13 C-13.5625 11.75 -13.5625 11.75 -15 10 C-14.6875 7.8125 -14.6875 7.8125 -14 6 C-14.66 5.67 -15.32 5.34 -16 5 C-15.34 4.67 -14.68 4.34 -14 4 C-13.34 4.33 -12.68 4.66 -12 5 C-11.67 4.34 -11.34 3.68 -11 3 C-10.67 3 -10.34 3 -10 3 C-9.67 2.34 -9.34 1.68 -9 1 C-7.35 1 -5.7 1 -4 1 C-4 1.99 -4 2.98 -4 4 C-3.34 3.01 -2.68 2.02 -2 1 C-1.67 1.33 -1.34 1.66 -1 2 C-0.67 1.34 -0.34 0.68 0 0 Z " fill="#1D2049" transform="translate(98,58)"/>
<path d="M0 0 C1.32 0.33 2.64 0.66 4 1 C4 1.66 4 2.32 4 3 C4.99 3 5.98 3 7 3 C7.33 2.01 7.66 1.02 8 0 C8.66 0.66 9.32 1.32 10 2 C13.12814514 2.24360073 13.12814514 2.24360073 16.625 2.125 C17.81351563 2.10695313 19.00203125 2.08890625 20.2265625 2.0703125 C21.14179687 2.04710938 22.05703125 2.02390625 23 2 C25.40537606 6.70319465 26 9.58735468 26 15 C29.63 15 33.26 15 37 15 C37.33 14.34 37.66 13.68 38 13 C38 13.66 38 14.32 38 15 C38.639375 15.12375 39.27875 15.2475 39.9375 15.375 C40.618125 15.58125 41.29875 15.7875 42 16 C42.495 16.99 42.495 16.99 43 18 C42.54625 18.4125 42.0925 18.825 41.625 19.25 C39.94049626 21.06408095 39.00734029 22.75285627 38 25 C37.505 24.01 37.505 24.01 37 23 C37.33 22.34 37.66 21.68 38 21 C33.71 21 29.42 21 25 21 C22 12.375 22 12.375 22 9 C15.73 9 9.46 9 3 9 C2.690625 10.60875 2.38125 12.2175 2.0625 13.875 C1.125 18.75 1.125 18.75 0 21 C-7.26 21 -14.52 21 -22 21 C-21.34 19.02 -20.68 17.04 -20 15 C-17.69 15 -15.38 15 -13 15 C-12.67 14.34 -12.34 13.68 -12 13 C-12 13.66 -12 14.32 -12 15 C-8.7 14.67 -5.4 14.34 -2 14 C-0.05320078 8.52378307 -0.05320078 8.52378307 -1 3 C-0.34 3 0.32 3 1 3 C0.67 2.01 0.34 1.02 0 0 Z " fill="#1C0009" transform="translate(66,88)"/>
<path d="M0 0 C6.93 0 13.86 0 21 0 C21 1.98 21 3.96 21 6 C21.66 6 22.32 6 23 6 C23.33 12.27 23.66 18.54 24 25 C24.33 24.34 24.66 23.68 25 23 C25.66 23.33 26.32 23.66 27 24 C26.17741935 32.22580645 26.17741935 32.22580645 24 36 C24 36.66 24 37.32 24 38 C23.34 38 22.68 38 22 38 C21.67 38.66 21.34 39.32 21 40 C20.34 38.68 19.68 37.36 19 36 C19 36.99 19 37.98 19 39 C18.67 39.66 18.34 40.32 18 41 C18.66 41.33 19.32 41.66 20 42 C20.33 41.67 20.66 41.34 21 41 C21.33 41.99 21.66 42.98 22 44 C22.99 44.309375 23.98 44.61875 25 44.9375 C25.99 45.288125 26.98 45.63875 28 46 C28.75 48.0625 28.75 48.0625 29 50 C29.66 50.33 30.32 50.66 31 51 C30.01 51 29.02 51 28 51 C27.71125 51.598125 27.4225 52.19625 27.125 52.8125 C26 55 26 55 24 58 C22.7922442 54.37673261 23.45688872 53.35853631 25 50 C22.525 50.495 22.525 50.495 20 51 C20 48 20 48 21 45 C17.535 45.495 17.535 45.495 14 46 C14 44.68 14 43.36 14 42 C14.99 41.505 14.99 41.505 16 41 C16 40.34 16 39.68 16 39 C15.34 38.67 14.68 38.34 14 38 C14 38.99 14 39.98 14 41 C13.34 41 12.68 41 12 41 C12.2784375 39.824375 12.2784375 39.824375 12.5625 38.625 C13.25962266 36.02910225 13.25962266 36.02910225 12 34 C11.34 33.67 10.68 33.34 10 33 C11.32 32.34 12.64 31.68 14 31 C13.67 29.35 13.34 27.7 13 26 C13.969375 26.165 14.93875 26.33 15.9375 26.5 C17.95983571 26.85992293 17.95983571 26.85992293 20 27 C19.01 26.01 18.02 25.02 17 24 C17.99 23.34 18.98 22.68 20 22 C20.36498034 19.10391601 20.36498034 19.10391601 20.1875 15.875 C20.16042969 14.77929688 20.13335937 13.68359375 20.10546875 12.5546875 C20.07066406 11.71164063 20.03585938 10.86859375 20 10 C19.01 10.66 18.02 11.32 17 12 C17.5259375 10.63875 17.5259375 10.63875 18.0625 9.25 C18.96468779 6.12241564 19.13381507 4.94791919 18 2 C16.02463255 2.34786708 16.02463255 2.34786708 14 3 C13.67 3.66 13.34 4.32 13 5 C12.67 3.68 12.34 2.36 12 1 C11.67 1.66 11.34 2.32 11 3 C11 2.34 11 1.68 11 1 C7.51190809 1.77030122 7.51190809 1.77030122 4 3 C3.67 3.99 3.34 4.98 3 6 C2.01 6.66 1.02 7.32 0 8 C0 5.36 0 2.72 0 0 Z " fill="#1E2453" transform="translate(41,12)"/>
<path d="M0 0 C2.31 0 4.62 0 7 0 C7 2.64 7 5.28 7 8 C6.34 8 5.68 8 5 8 C5.53625 8.9075 6.0725 9.815 6.625 10.75 C8 14 8 14 7.1875 16.375 C6.795625 16.91125 6.40375 17.4475 6 18 C7.32 18 8.64 18 10 18 C10 18.66 10 19.32 10 20 C11.32 19.67 12.64 19.34 14 19 C14 20.65 14 22.3 14 24 C15.32 23.67 16.64 23.34 18 23 C18 23.99 18 24.98 18 26 C19.32 25.34 20.64 24.68 22 24 C22.33 25.65 22.66 27.3 23 29 C21.68 28.67 20.36 28.34 19 28 C18.67 28.66 18.34 29.32 18 30 C15.9375 31.125 15.9375 31.125 14 32 C14 32.66 14 33.32 14 34 C10.37 34 6.74 34 3 34 C2.87625 32.906875 2.7525 31.81375 2.625 30.6875 C2.24535199 26.92618198 2.24535199 26.92618198 0 24 C-0.1953125 21.73828125 -0.1953125 21.73828125 -0.125 19.3125 C-0.10695313 18.50425781 -0.08890625 17.69601563 -0.0703125 16.86328125 C-0.04710938 16.24839844 -0.02390625 15.63351563 0 15 C0.99 15.495 0.99 15.495 2 16 C2.33 15.67 2.66 15.34 3 15 C2.68289062 14.45859375 2.36578125 13.9171875 2.0390625 13.359375 C0.81692026 10.5842851 0.59056564 8.26791902 0.375 5.25 C0.30023438 4.26515625 0.22546875 3.2803125 0.1484375 2.265625 C0.09945312 1.51796875 0.05046875 0.7703125 0 0 Z " fill="#1F1F49" transform="translate(89,69)"/>
<path d="M0 0 C1.98 0 3.96 0 6 0 C5.67 1.32 5.34 2.64 5 4 C5.66 4.33 6.32 4.66 7 5 C4 5 4 5 2 4 C1.67 6.31 1.34 8.62 1 11 C2.88316159 12.10836423 2.88316159 12.10836423 5 13 C5.66 12.67 6.32 12.34 7 12 C7.85039667 14.38111068 8.07366994 15.71350578 7.4375 18.1875 C6 20 6 20 2.9375 20.75 C-0 21 -0 21 -1 21 C-2.35827971 22.64639965 -3.69254251 24.31295807 -5 26 C-5.33 25.67 -5.66 25.34 -6 25 C-6.52851562 25.14050781 -7.05703125 25.28101562 -7.6015625 25.42578125 C-10.88451599 26.21176523 -14.00221928 26.17066976 -17.375 26.1875 C-18.66148438 26.20167969 -19.94796875 26.21585938 -21.2734375 26.23046875 C-24.88452711 26.00714141 -27.64761667 25.31293032 -31 24 C-31 23.34 -31 22.68 -31 22 C-30.22914062 22.02320312 -29.45828125 22.04640625 -28.6640625 22.0703125 C-27.15972656 22.09738281 -27.15972656 22.09738281 -25.625 22.125 C-24.62726562 22.14820312 -23.62953125 22.17140625 -22.6015625 22.1953125 C-19.83737827 22.27216848 -19.83737827 22.27216848 -18 20 C-17.83312552 17.41645782 -17.83312552 17.41645782 -18 15 C-18.8971875 15.2784375 -18.8971875 15.2784375 -19.8125 15.5625 C-22 16 -22 16 -25 15 C-25.33 13.35 -25.66 11.7 -26 10 C-25.401875 10.350625 -24.80375 10.70125 -24.1875 11.0625 C-21.89186786 12.33304698 -21.89186786 12.33304698 -19 11 C-19 11.66 -19 12.32 -19 13 C-18.4225 12.690625 -17.845 12.38125 -17.25 12.0625 C-15.15705816 11.07416636 -13.25464725 10.4831387 -11 10 C-11.99 10.495 -11.99 10.495 -13 11 C-13 11.66 -13 12.32 -13 13 C-13.66 13 -14.32 13 -15 13 C-15.33 15.97 -15.66 18.94 -16 22 C-14.68 22 -13.36 22 -12 22 C-12 20.35 -12 18.7 -12 17 C-10.35 17.33 -8.7 17.66 -7 18 C-7.226875 17.236875 -7.45375 16.47375 -7.6875 15.6875 C-8 13 -8 13 -6.8125 11.125 C-5 10 -5 10 -2.8125 10.3125 C-2.214375 10.539375 -1.61625 10.76625 -1 11 C-0.67 8.69 -0.34 6.38 0 4 C-0.66 4 -1.32 4 -2 4 C-1.34 2.68 -0.68 1.36 0 0 Z " fill="#1E1E47" transform="translate(54,59)"/>
<path d="M0 0 C1.32 0.66 2.64 1.32 4 2 C3.814375 2.721875 3.62875 3.44375 3.4375 4.1875 C2.96599991 7.21857203 2.98375009 9.10759641 4 12 C5.96758273 13.36020151 5.96758273 13.36020151 8 14 C4 14 4 14 2 13 C2.66 15.97 3.32 18.94 4 22 C3.34 22 2.68 22 2 22 C2 22.99 2 23.98 2 25 C2.99 25 3.98 25 5 25 C4.33333333 27 3.66666667 29 3 31 C1.68 30.01 0.36 29.02 -1 28 C-0.814375 27.113125 -0.62875 26.22625 -0.4375 25.3125 C-0.01957516 22.14821189 -0.19222258 20.05160358 -1 17 C-1.66 17 -2.32 17 -3 17 C-2.67 17.99 -2.34 18.98 -2 20 C-2.66 20.33 -3.32 20.66 -4 21 C-4.65772428 24.02934491 -4.65772428 24.02934491 -5 27 C-6.98 27.33 -8.96 27.66 -11 28 C-11 26.02 -11 24.04 -11 22 C-11.66 22.66 -12.32 23.32 -13 24 C-12.74438677 21.6568787 -12.40729228 19.32156597 -12 17 C-11.34 16.67 -10.68 16.34 -10 16 C-11.32 15.34 -12.64 14.68 -14 14 C-13.34 12.02 -12.68 10.04 -12 8 C-9.03 8.495 -9.03 8.495 -6 9 C-5.67 7.68 -5.34 6.36 -5 5 C-4.855625 6.11375 -4.71125 7.2275 -4.5625 8.375 C-4.21627965 11.82142047 -4.21627965 11.82142047 -3 14 C-2.34 14 -1.68 14 -1 14 C-1 13.01 -1 12.02 -1 11 C-1.66 11 -2.32 11 -3 11 C-3.33 9.02 -3.66 7.04 -4 5 C-2 7 -2 7 -2 10 C-1.34 9.34 -0.68 8.68 0 8 C-0.66 6.35 -1.32 4.7 -2 3 C-1.34 2.67 -0.68 2.34 0 2 C0 1.34 0 0.68 0 0 Z " fill="#22356B" transform="translate(118,89)"/>
<path d="M0 0 C0.66 0.33 1.32 0.66 2 1 C2.66 0.835 3.32 0.67 4 0.5 C6 0 6 0 8 1 C8 2.98 8 4.96 8 7 C7.34 7 6.68 7 6 7 C6 7.99 6 8.98 6 10 C6.66 9.34 7.32 8.68 8 8 C9 9 9 9 9.09765625 11.94140625 C9.08605469 13.13636719 9.07445312 14.33132812 9.0625 15.5625 C9.05347656 16.76003906 9.04445313 17.95757813 9.03515625 19.19140625 C9.02355469 20.11824219 9.01195312 21.04507813 9 22 C8.01 22.33 7.02 22.66 6 23 C6.99 23.99 7.98 24.98 9 26 C8.67 26.99 8.34 27.98 8 29 C7.01 28.34 6.02 27.68 5 27 C4.01 26.67 3.02 26.34 2 26 C2.33 27.65 2.66 29.3 3 31 C1.35 31.33 -0.3 31.66 -2 32 C-2.33 30.35 -2.66 28.7 -3 27 C-2.34 27.33 -1.68 27.66 -1 28 C-1 26.35 -1 24.7 -1 23 C-1.33 23 -1.66 23 -2 23 C-2.08226668 19.95613276 -1.97608217 17.92824652 -1 15 C-0.34 15 0.32 15 1 15 C1 13.68 1 12.36 1 11 C-0.32 11 -1.64 11 -3 11 C-2.25 3.375 -2.25 3.375 0 0 Z " fill="#1F2C5C" transform="translate(53,13)"/>
<path d="M0 0 C0.7904896 2.30473915 1.12134332 3.60366437 0.3984375 5.96484375 C-3.05455246 12.620416 -6.85343131 17.16834071 -14 20 C-21.9675635 22.33365378 -29.0354153 22.21581666 -37.0625 20.25 C-39 19 -39 19 -39.9375 16.5 C-39.958125 15.675 -39.97875 14.85 -40 14 C-39.34 13.34 -38.68 12.68 -38 12 C-37.01 12.33 -36.02 12.66 -35 13 C-35.33 13.66 -35.66 14.32 -36 15 C-35.34 15 -34.68 15 -34 15 C-34 15.66 -34 16.32 -34 17 C-32.35 16.67 -30.7 16.34 -29 16 C-30.32 15.67 -31.64 15.34 -33 15 C-31.02 14.34 -29.04 13.68 -27 13 C-27 14.32 -27 15.64 -27 17 C-24.69 17 -22.38 17 -20 17 C-20.33 16.01 -20.66 15.02 -21 14 C-20.67 13.34 -20.34 12.68 -20 12 C-19.34 12.33 -18.68 12.66 -18 13 C-15.9519572 12.9049261 -15.9519572 12.9049261 -14 12 C-12.71563266 10.0162233 -12.71563266 10.0162233 -12 8 C-10 9 -10 9 -8 12 C-7.566875 11.071875 -7.566875 11.071875 -7.125 10.125 C-5.78664345 7.59699318 -4.01550454 6.01550454 -2 4 C-1.30251417 2.68252676 -0.63040043 1.35085807 0 0 Z " fill="#190410" transform="translate(125,114)"/>
<path d="M0 0 C1.32 0 2.64 0 4 0 C4.66 1.32 5.32 2.64 6 4 C5.34 4 4.68 4 4 4 C4.31182069 5.41681634 4.62448737 6.83344651 4.9375 8.25 C5.11152344 9.03890625 5.28554687 9.8278125 5.46484375 10.640625 C5.80247473 12.12915867 6.15586373 13.61428647 6.53125 15.09375 C7.17349466 17.70554494 7.57761798 20.34502733 8 23 C7.01 23 6.02 23 5 23 C4.67 22.01 4.34 21.02 4 20 C4.020625 20.969375 4.04125 21.93875 4.0625 22.9375 C4 26 4 26 3 27 C0.98035801 27.07244053 -1.04167124 27.08377188 -3.0625 27.0625 C-4.71958984 27.04896484 -4.71958984 27.04896484 -6.41015625 27.03515625 C-7.26480469 27.02355469 -8.11945313 27.01195313 -9 27 C-9.82638376 24.10765685 -10 22.11257569 -10 19 C-9.01 18.67 -8.02 18.34 -7 18 C-7 18.66 -7 19.32 -7 20 C-6.34 19.67 -5.68 19.34 -5 19 C-5 18.01 -5 17.02 -5 16 C-4.34 16 -3.68 16 -3 16 C-2.67 15.34 -2.34 14.68 -2 14 C-1.67 15.32 -1.34 16.64 -1 18 C-0.22495658 13.60808728 -0.06370179 10.33037923 -1 6 C-0.5625 3.8125 -0.5625 3.8125 0 2 C0 1.34 0 0.68 0 0 Z " fill="#1F2353" transform="translate(85,64)"/>
<path d="M0 0 C0.66 0.33 1.32 0.66 2 1 C2 3.97 2 6.94 2 10 C5.63 10 9.26 10 13 10 C14.35439668 12.70879335 14.06501451 15.00933268 14 18 C13.01 17.01 12.02 16.02 11 15 C10.01 16.485 10.01 16.485 9 18 C8.34 18 7.68 18 7 18 C7 17.34 7 16.68 7 16 C6.34 16.33 5.68 16.66 5 17 C5 18.32 5 19.64 5 21 C4.67 21.99 4.34 22.98 4 24 C3.67 23.67 3.34 23.34 3 23 C2.67 23.66 2.34 24.32 2 25 C1.195625 24.814375 0.39125 24.62875 -0.4375 24.4375 C-1.283125 24.293125 -2.12875 24.14875 -3 24 C-3.33 24.33 -3.66 24.66 -4 25 C-4.66 25 -5.32 25 -6 25 C-6.33 23.02 -6.66 21.04 -7 19 C-5.68 18.34 -4.36 17.68 -3 17 C-3.66 17 -4.32 17 -5 17 C-5.5625 15.0625 -5.5625 15.0625 -6 13 C-5.67 12.67 -5.34 12.34 -5 12 C-4.63837971 10.67405895 -4.30271961 9.34061543 -4 8 C-3.01 8 -2.02 8 -1 8 C-0.67 7.01 -0.34 6.02 0 5 C-0.99 4.67 -1.98 4.34 -3 4 C-1 1 -1 1 0 0 Z " fill="#233E7B" transform="translate(71,66)"/>
<path d="M0 0 C6.6 0 13.2 0 20 0 C19 4 19 4 18 6 C17.34 6 16.68 6 16 6 C15.67 6.66 15.34 7.32 15 8 C14.67 7.34 14.34 6.68 14 6 C13.34 6 12.68 6 12 6 C12.185625 6.9075 12.37125 7.815 12.5625 8.75 C12.96606477 11.74790974 12.80239145 13.19162994 12 16 C12.33 16.66 12.66 17.32 13 18 C11 21 11 21 7.875 21.6875 C6.92625 21.790625 5.9775 21.89375 5 22 C5 21.34 5 20.68 5 20 C3.68 19.34 2.36 18.68 1 18 C1 16.02 1 14.04 1 12 C1.66 12 2.32 12 3 12 C3.33 11.34 3.66 10.68 4 10 C4.33 11.32 4.66 12.64 5 14 C5.33 10.04 5.66 6.08 6 2 C5.01 3.485 5.01 3.485 4 5 C3.34 4.67 2.68 4.34 2 4 C2 3.34 2 2.68 2 2 C1.34 2 0.68 2 0 2 C0 1.34 0 0.68 0 0 Z " fill="#1D2B5E" transform="translate(107,62)"/>
<path d="M0 0 C0.99 0.33 1.98 0.66 3 1 C2 4 2 4 0 5 C0 5.66 0 6.32 0 7 C2.31 7 4.62 7 7 7 C6.67 8.98 6.34 10.96 6 13 C5.34 13 4.68 13 4 13 C4 12.01 4 11.02 4 10 C1.58380177 9.74969023 1.58380177 9.74969023 -1 10 C-1.99 11.485 -1.99 11.485 -3 13 C-2.34 13 -1.68 13 -1 13 C-0.875 16.375 -0.875 16.375 -1 20 C-1.66 20.66 -2.32 21.32 -3 22 C-3.66 22 -4.32 22 -5 22 C-5.33 21.34 -5.66 20.68 -6 20 C-7.4606285 22.64738916 -8 23.89448334 -8 27 C-9.65 27.33 -11.3 27.66 -13 28 C-11.68 28.33 -10.36 28.66 -9 29 C-10.32 29 -11.64 29 -13 29 C-13 29.66 -13 30.32 -13 31 C-14.65 31.33 -16.3 31.66 -18 32 C-17.34 28.7 -16.68 25.4 -16 22 C-15.34 22 -14.68 22 -14 22 C-14.33 21.34 -14.66 20.68 -15 20 C-15.99 22.475 -15.99 22.475 -17 25 C-17.33 24.01 -17.66 23.02 -18 22 C-18.66 22 -19.32 22 -20 22 C-20 21.34 -20 20.68 -20 20 C-20.66 20 -21.32 20 -22 20 C-22 19.34 -22 18.68 -22 18 C-21.01 17.67 -20.02 17.34 -19 17 C-18.67 17.33 -18.34 17.66 -18 18 C-17.01 17.34 -16.02 16.68 -15 16 C-12.3125 16.375 -12.3125 16.375 -10 17 C-10 17.66 -10 18.32 -10 19 C-9.34 19 -8.68 19 -8 19 C-8.33 17.68 -8.66 16.36 -9 15 C-8.34 15 -7.68 15 -7 15 C-7 15.99 -7 16.98 -7 18 C-6.01 17.67 -5.02 17.34 -4 17 C-4.33 16.01 -4.66 15.02 -5 14 C-4.54451823 11.26187393 -3.74685247 8.6798824 -3 6 C-5.475 5.505 -5.475 5.505 -8 5 C-6 2 -6 2 -4 1 C-4 1.99 -4 2.98 -4 4 C-2.68 3.67 -1.36 3.34 0 3 C0 2.01 0 1.02 0 0 Z " fill="#223B74" transform="translate(55,50)"/>
<path d="M0 0 C0.66 0.66 1.32 1.32 2 2 C1.9765625 5.0390625 1.9765625 5.0390625 1.625 8.625 C1.45871094 10.40777344 1.45871094 10.40777344 1.2890625 12.2265625 C1.19367188 13.14179687 1.09828125 14.05703125 1 15 C0.01 15 -0.98 15 -2 15 C-2 13.68 -2 12.36 -2 11 C-2.66 11 -3.32 11 -4 11 C-4 12.98 -4 14.96 -4 17 C-2.02 17.66 -0.04 18.32 2 19 C0.515 21.475 0.515 21.475 -1 24 C-0.34 24.33 0.32 24.66 1 25 C1 25.66 1 26.32 1 27 C1.66 27 2.32 27 3 27 C2.67 27.99 2.34 28.98 2 30 C-1.5625 31.1875 -1.5625 31.1875 -5 32 C-5.66 31.34 -6.32 30.68 -7 30 C-7.99 30 -8.98 30 -10 30 C-10 28.68 -10 27.36 -10 26 C-10.99 26 -11.98 26 -13 26 C-12.67 25.34 -12.34 24.68 -12 24 C-11.01 24 -10.02 24 -9 24 C-9.33 22.35 -9.66 20.7 -10 19 C-9.34 18.67 -8.68 18.34 -8 18 C-8 17.34 -8 16.68 -8 16 C-7.01 15.67 -6.02 15.34 -5 15 C-5 10.38 -5 5.76 -5 1 C-3.68 1.33 -2.36 1.66 -1 2 C-0.67 1.34 -0.34 0.68 0 0 Z " fill="#203369" transform="translate(112,63)"/>
<path d="M0 0 C0.66 0 1.32 0 2 0 C2.12375 0.969375 2.2475 1.93875 2.375 2.9375 C2.58125 3.948125 2.7875 4.95875 3 6 C5.11785113 7.11785113 5.11785113 7.11785113 8 8 C8.33 9.65 8.66 11.3 9 13 C8.01 13 7.02 13 6 13 C6.309375 14.03125 6.61875 15.0625 6.9375 16.125 C7.87502812 19.38972557 8.50772702 22.63613462 9 26 C7.68 26.33 6.36 26.66 5 27 C4.01 22.71 3.02 18.42 2 14 C1.54625 15.216875 1.0925 16.43375 0.625 17.6875 C-0.54452941 20.8080927 -1.74562438 23.91230616 -3 27 C-3.66 26.67 -4.32 26.34 -5 26 C-5 23.03 -5 20.06 -5 17 C-5.66 17.66 -6.32 18.32 -7 19 C-7.33 18.01 -7.66 17.02 -8 16 C-6.35 15.67 -4.7 15.34 -3 15 C-3.33 13.35 -3.66 11.7 -4 10 C-3.34 9.67 -2.68 9.34 -2 9 C-1.31270746 6.88153715 -1.31270746 6.88153715 -0.875 4.4375 C-0.70742187 3.61121094 -0.53984375 2.78492188 -0.3671875 1.93359375 C-0.24601562 1.29550781 -0.12484375 0.65742187 0 0 Z " fill="#19020E" transform="translate(77,50)"/>
<path d="M0 0 C0.598125 0.350625 1.19625 0.70125 1.8125 1.0625 C4.10813214 2.33304698 4.10813214 2.33304698 7 1 C7 1.66 7 2.32 7 3 C7.86625 2.5359375 7.86625 2.5359375 8.75 2.0625 C10.84294184 1.07416636 12.74535275 0.4831387 15 0 C14.01 0.495 14.01 0.495 13 1 C13 1.66 13 2.32 13 3 C12.34 3 11.68 3 11 3 C10.67 5.97 10.34 8.94 10 12 C17.10298287 10.8343396 17.10298287 10.8343396 23 7 C23.66 7.66 24.32 8.32 25 9 C23.92598892 11.91517292 23.22189824 13.77810176 21 16 C20.67 15.67 20.34 15.34 20 15 C19.47148438 15.14050781 18.94296875 15.28101562 18.3984375 15.42578125 C15.11548401 16.21176523 11.99778072 16.17066976 8.625 16.1875 C7.33851562 16.20167969 6.05203125 16.21585938 4.7265625 16.23046875 C1.11547289 16.00714141 -1.64761667 15.31293032 -5 14 C-5 13.34 -5 12.68 -5 12 C-4.22914062 12.02320312 -3.45828125 12.04640625 -2.6640625 12.0703125 C-1.15972656 12.09738281 -1.15972656 12.09738281 0.375 12.125 C1.37273438 12.14820312 2.37046875 12.17140625 3.3984375 12.1953125 C6.16262173 12.27216848 6.16262173 12.27216848 8 10 C8.16687448 7.41645782 8.16687448 7.41645782 8 5 C7.1028125 5.2784375 7.1028125 5.2784375 6.1875 5.5625 C4 6 4 6 1 5 C0.67 3.35 0.34 1.7 0 0 Z " fill="#170007" transform="translate(28,69)"/>
<path d="M0 0 C1.32 0 2.64 0 4 0 C5.4606285 2.64738916 6 3.89448334 6 7 C5.34 7 4.68 7 4 7 C4 7.33 4 7.66 4 8 C6.97 8.495 6.97 8.495 10 9 C10.79953138 12.28696233 11.09658936 13.71023192 10 17 C8.58344207 17.0272415 7.16672955 17.04650467 5.75 17.0625 C4.56664062 17.07990234 4.56664062 17.07990234 3.359375 17.09765625 C1.09308998 17.00385306 -0.8288895 16.63241063 -3 16 C-4.35862069 9.70094044 -4.35862069 9.70094044 -2.625 6.3125 C-2.08875 5.549375 -1.5525 4.78625 -1 4 C-0.30420546 1.80869466 -0.30420546 1.80869466 0 0 Z " fill="#223167" transform="translate(26,65)"/>
<path d="M0 0 C4.29 0 8.58 0 13 0 C11.515 2.475 11.515 2.475 10 5 C9.01 5 8.02 5 7 5 C6.34 6.32 5.68 7.64 5 9 C4.01 9 3.02 9 2 9 C2.99 9.33 3.98 9.66 5 10 C5.66 10.66 6.32 11.32 7 12 C7 10.68 7 9.36 7 8 C7.33 7.34 7.66 6.68 8 6 C11 7 11 7 13 10 C12.71325582 12.00720923 12.38133299 14.0085944 12 16 C12.33 16.66 12.66 17.32 13 18 C12.34 18.66 11.68 19.32 11 20 C10.67 18.35 10.34 16.7 10 15 C9.34 15 8.68 15 8 15 C8.33 15.99 8.66 16.98 9 18 C8.02149805 19.02104551 7.02019573 20.0206121 6 21 C5.67 21 5.34 21 5 21 C4.67 18.36 4.34 15.72 4 13 C2.02 13 0.04 13 -2 13 C-1.47916667 11.07942708 -0.95833333 9.15885417 -0.4375 7.23828125 C0.15986025 4.56224988 0.15986025 4.56224988 0 0 Z " fill="#1E1E49" transform="translate(69,35)"/>
<path d="M0 0 C1.32 0.66 2.64 1.32 4 2 C3.814375 2.721875 3.62875 3.44375 3.4375 4.1875 C2.96599991 7.21857203 2.98375009 9.10759641 4 12 C5.96758273 13.36020151 5.96758273 13.36020151 8 14 C4 14 4 14 2 13 C2.66 15.97 3.32 18.94 4 22 C3.34 22 2.68 22 2 22 C2 22.99 2 23.98 2 25 C2.99 25 3.98 25 5 25 C4.33333333 27 3.66666667 29 3 31 C1.68 30.01 0.36 29.02 -1 28 C-0.814375 27.113125 -0.62875 26.22625 -0.4375 25.3125 C-0.01957516 22.14821189 -0.19222258 20.05160358 -1 17 C-1.99 17 -2.98 17 -4 17 C-4.99 16.34 -5.98 15.68 -7 15 C-5.68 14.01 -4.36 13.02 -3 12 C-3 12.66 -3 13.32 -3 14 C-2.34 14 -1.68 14 -1 14 C-1 13.01 -1 12.02 -1 11 C-1.66 11 -2.32 11 -3 11 C-3.33 9.02 -3.66 7.04 -4 5 C-2 7 -2 7 -2 10 C-1.34 9.34 -0.68 8.68 0 8 C-0.66 6.35 -1.32 4.7 -2 3 C-1.34 2.67 -0.68 2.34 0 2 C0 1.34 0 0.68 0 0 Z " fill="#233F7A" transform="translate(118,89)"/>
<path d="M0 0 C6.93 0 13.86 0 21 0 C21 1.98 21 3.96 21 6 C21.66 6 22.32 6 23 6 C23 12.93 23 19.86 23 27 C21.35 26.67 19.7 26.34 18 26 C17.67 25.01 17.34 24.02 17 23 C17.99 22.67 18.98 22.34 20 22 C20 18.04 20 14.08 20 10 C19.01 10.66 18.02 11.32 17 12 C17.5259375 10.63875 17.5259375 10.63875 18.0625 9.25 C18.96468779 6.12241564 19.13381507 4.94791919 18 2 C16.02463255 2.34786708 16.02463255 2.34786708 14 3 C13.67 3.66 13.34 4.32 13 5 C12.67 3.68 12.34 2.36 12 1 C11.67 1.66 11.34 2.32 11 3 C11 2.34 11 1.68 11 1 C7.51190809 1.77030122 7.51190809 1.77030122 4 3 C3.67 3.99 3.34 4.98 3 6 C2.01 6.66 1.02 7.32 0 8 C0 5.36 0 2.72 0 0 Z " fill="#140617" transform="translate(41,12)"/>
<path d="M0 0 C1.2375 0.2475 1.2375 0.2475 2.5 0.5 C7.66598624 1.23799803 12.96505105 1.67831632 18 0 C18.66 1.32 19.32 2.64 20 4 C18.625 6 18.625 6 17 8 C16.34 8 15.68 8 15 8 C14.34 8.66 13.68 9.32 13 10 C12.67 9.34 12.34 8.68 12 8 C10.576875 8.7734375 10.576875 8.7734375 9.125 9.5625 C8.09375 10.036875 7.0625 10.51125 6 11 C3.48916886 9.74458443 3.12874554 8.49936512 2 6 C1.34 6 0.68 6 0 6 C0 4.02 0 2.04 0 0 Z " fill="#25437E" transform="translate(86,112)"/>
<path d="M0 0 C1.98 0.66 3.96 1.32 6 2 C8.37808316 2.2378742 8.37808316 2.2378742 10.625 2.125 C11.35976563 2.10695312 12.09453125 2.08890625 12.8515625 2.0703125 C13.56054688 2.04710937 14.26953125 2.02390625 15 2 C16.32 2 17.64 2 19 2 C19 5 19 5 18 8 C15.525 7.505 15.525 7.505 13 7 C13 7.66 13 8.32 13 9 C11 8 11 8 10 5 C9.34 5.66 8.68 6.32 8 7 C8 6.01 8 5.02 8 4 C7.01 4.495 7.01 4.495 6 5 C5.64080332 6.66128463 5.31088368 8.32900023 5 10 C4.649375 10.639375 4.29875 11.27875 3.9375 11.9375 C2.6880819 14.68621982 2.86448443 17.01865753 3 20 C2.01 19.67 1.02 19.34 0 19 C0 12.73 0 6.46 0 0 Z " fill="#1C2851" transform="translate(20,61)"/>
<path d="M0 0 C0.66 0.33 1.32 0.66 2 1 C2 1.99 2 2.98 2 4 C2.66 4.33 3.32 4.66 4 5 C4 3.35 4 1.7 4 0 C5.64826111 2.96687001 6.44271087 5.65626525 7 9 C8.98 8.67 10.96 8.34 13 8 C13.33 8.99 13.66 9.98 14 11 C13.34 12.32 12.68 13.64 12 15 C8.37 15 4.74 15 1 15 C0.87625 13.906875 0.7525 12.81375 0.625 11.6875 C0.24535199 7.92618198 0.24535199 7.92618198 -2 5 C-1.48275862 1.48275862 -1.48275862 1.48275862 0 0 Z " fill="#25407D" transform="translate(91,88)"/>
<path d="M0 0 C0.66 0.33 1.32 0.66 2 1 C2.19622241 5.21878192 1.80230168 8.17010894 0 12 C1.65 12 3.3 12 5 12 C5 12.99 5 13.98 5 15 C3.68 15.33 2.36 15.66 1 16 C1.020625 17.051875 1.04125 18.10375 1.0625 19.1875 C1.01103198 22.32704904 0.73482813 24.96883396 0 28 C-0.33 28 -0.66 28 -1 28 C-1.3403125 26.576875 -1.3403125 26.576875 -1.6875 25.125 C-2.120625 24.09375 -2.55375 23.0625 -3 22 C-3.825 21.731875 -4.65 21.46375 -5.5 21.1875 C-8 20 -8 20 -8.76953125 17.88671875 C-9.26479173 15.59569367 -9.67994123 13.32162035 -10 11 C-8.02 11.99 -8.02 11.99 -6 13 C-6 13.99 -6 14.98 -6 16 C-5.34 15.34 -4.68 14.68 -4 14 C-4.33 13.34 -4.66 12.68 -5 12 C-4.34 11.67 -3.68 11.34 -3 11 C-1.25641087 7.51282173 -0.89280082 4.85917061 -1 1 C-0.67 0.67 -0.34 0.34 0 0 Z " fill="#233B75" transform="translate(68,35)"/>
<path d="M0 0 C0.33 0 0.66 0 1 0 C1.05379226 2.95857409 1.09357093 5.91617721 1.125 8.875 C1.14175781 9.71675781 1.15851563 10.55851562 1.17578125 11.42578125 C1.18222656 12.23144531 1.18867187 13.03710938 1.1953125 13.8671875 C1.20578613 14.61081543 1.21625977 15.35444336 1.22705078 16.12060547 C1 18 1 18 -1 20 C-1 19.34 -1 18.68 -1 18 C-1.66 18 -2.32 18 -3 18 C-5.0095379 15.9904621 -6.5821925 14.40856455 -8 12 C-7.75 9.375 -7.75 9.375 -7 7 C-7.36856864 4.76832815 -7.36856864 4.76832815 -8 3 C-5.66666667 3 -3.33333333 3 -1 3 C-0.67 2.01 -0.34 1.02 0 0 Z " fill="#1F3265" transform="translate(126,65)"/>
<path d="M0 0 C0.33 0 0.66 0 1 0 C1 1.65 1 3.3 1 5 C2.32 5 3.64 5 5 5 C5 5.66 5 6.32 5 7 C6.11375 6.484375 7.2275 5.96875 8.375 5.4375 C9.57125 4.963125 10.7675 4.48875 12 4 C12.66 4.33 13.32 4.66 14 5 C14.33 4.34 14.66 3.68 15 3 C17 8.625 17 8.625 17 12 C14.69 12.33 12.38 12.66 10 13 C9.67 11.68 9.34 10.36 9 9 C8.01 9.33 7.02 9.66 6 10 C6.66 10.33 7.32 10.66 8 11 C7.67 11.66 7.34 12.32 7 13 C5.68 12.67 4.36 12.34 3 12 C3 11.34 3 10.68 3 10 C2.34 10 1.68 10 1 10 C1 9.34 1 8.68 1 8 C0.34 7.67 -0.32 7.34 -1 7 C-1.33 7.99 -1.66 8.98 -2 10 C-1.85950482 8.52031676 -1.71245174 7.04125484 -1.5625 5.5625 C-1.48128906 4.73878906 -1.40007812 3.91507812 -1.31640625 3.06640625 C-1 1 -1 1 0 0 Z " fill="#25417E" transform="translate(88,119)"/>
<path d="M0 0 C0.33 0 0.66 0 1 0 C1 3.96 1 7.92 1 12 C0.01 12.33 -0.98 12.66 -2 13 C-1.01 13.99 -0.02 14.98 1 16 C0.67 16.99 0.34 17.98 0 19 C-0.99 18.34 -1.98 17.68 -3 17 C-3.99 16.67 -4.98 16.34 -6 16 C-5.67 17.65 -5.34 19.3 -5 21 C-6.65 21.33 -8.3 21.66 -10 22 C-10.33 20.35 -10.66 18.7 -11 17 C-10.34 17.33 -9.68 17.66 -9 18 C-8.67 15.03 -8.34 12.06 -8 9 C-7.34 9 -6.68 9 -6 9 C-5.67 8.01 -5.34 7.02 -5 6 C-3.66666667 5 -2.33333333 4 -1 3 C-0.67 2.01 -0.34 1.02 0 0 Z " fill="#202C61" transform="translate(61,23)"/>
<path d="M0 0 C0.33 0.99 0.66 1.98 1 3 C1.66 3.33 2.32 3.66 3 4 C2.34 5.65 1.68 7.3 1 9 C0.34 9 -0.32 9 -1 9 C-0.67 9.99 -0.34 10.98 0 12 C-0.99 12.495 -0.99 12.495 -2 13 C-1.34 14.65 -0.68 16.3 0 18 C-0.99 18.33 -1.98 18.66 -3 19 C-3.33 18.34 -3.66 17.68 -4 17 C-4 17.99 -4 18.98 -4 20 C-3.34 20 -2.68 20 -2 20 C-2 20.99 -2 21.98 -2 23 C-3.32 23 -4.64 23 -6 23 C-6.2493357 21.39884424 -6.47378648 19.79379841 -6.6875 18.1875 C-6.81511719 17.29417969 -6.94273438 16.40085937 -7.07421875 15.48046875 C-7 13 -7 13 -5.51953125 11.17578125 C-5.01808594 10.78777344 -4.51664062 10.39976563 -4 10 C-5.32 10 -6.64 10 -8 10 C-9 7 -9 7 -8 4 C-7.236875 3.896875 -6.47375 3.79375 -5.6875 3.6875 C-2.82940576 2.95635961 -1.84257115 2.23048087 0 0 Z " fill="#20356B" transform="translate(119,80)"/>
<path d="M0 0 C0.99 0 1.98 0 3 0 C3 0.99 3 1.98 3 3 C4.32 3.66 5.64 4.32 7 5 C6.49287967 8.71888239 5.88391785 11.73454239 4 15 C1.69 15 -0.62 15 -3 15 C-3.33 14.34 -3.66 13.68 -4 13 C-3.34 13 -2.68 13 -2 13 C-2.7425 12.3503125 -2.7425 12.3503125 -3.5 11.6875 C-5 10 -5 10 -5 7 C-4.01 7 -3.02 7 -2 7 C-1.855625 6.195625 -1.71125 5.39125 -1.5625 4.5625 C-1 2 -1 2 0 1 C0 0.67 0 0.34 0 0 Z " fill="#24376F" transform="translate(60,88)"/>
<path d="M0 0 C1.485 0.99 1.485 0.99 3 2 C2.34 2 1.68 2 1 2 C1 3.98 1 5.96 1 8 C1.99 7.67 2.98 7.34 4 7 C5.32 8.32 6.64 9.64 8 11 C8.61875 10.649375 9.2375 10.29875 9.875 9.9375 C10.926875 9.4734375 10.926875 9.4734375 12 9 C12.66 9.33 13.32 9.66 14 10 C14.66 9.01 15.32 8.02 16 7 C16 7.99 16 8.98 16 10 C16.66 10 17.32 10 18 10 C18.33 9.34 18.66 8.68 19 8 C19.73080266 9.97746603 20.39421747 11.98072489 21 14 C20.67 14.66 20.34 15.32 20 16 C19.34 15.67 18.68 15.34 18 15 C17.01 14.67 16.02 14.34 15 14 C14.071875 14.495 14.071875 14.495 13.125 15 C10.35170314 16.30508088 8.89273331 15.83737017 6 15 C5.34 14.67 4.68 14.34 4 14 C3.375 11.9375 3.375 11.9375 3 10 C2.01 13.465 2.01 13.465 1 17 C0.67 17 0.34 17 0 17 C0 11.39 0 5.78 0 0 Z " fill="#1C1B42" transform="translate(85,110)"/>
<path d="M0 0 C2.1875 0.3125 2.1875 0.3125 4 1 C4 3.31 4 5.62 4 8 C3.01 7.01 2.02 6.02 1 5 C0.01 6.485 0.01 6.485 -1 8 C-1.66 8 -2.32 8 -3 8 C-3 7.34 -3 6.68 -3 6 C-3.99 6.495 -3.99 6.495 -5 7 C-5 8.32 -5 9.64 -5 11 C-5.33 11.99 -5.66 12.98 -6 14 C-6.33 13.67 -6.66 13.34 -7 13 C-7.33 13.66 -7.66 14.32 -8 15 C-8.804375 14.814375 -9.60875 14.62875 -10.4375 14.4375 C-11.283125 14.293125 -12.12875 14.14875 -13 14 C-13.33 14.33 -13.66 14.66 -14 15 C-14.66 15 -15.32 15 -16 15 C-16.33 13.02 -16.66 11.04 -17 9 C-16.01 8.67 -15.02 8.34 -14 8 C-14 8.66 -14 9.32 -14 10 C-11.69 10 -9.38 10 -7 10 C-7 9.34 -7 8.68 -7 8 C-7.66 8 -8.32 8 -9 8 C-8.67 6.68 -8.34 5.36 -8 4 C-7.236875 3.896875 -6.47375 3.79375 -5.6875 3.6875 C-2.95645104 3.2401537 -2.95645104 3.2401537 -1.4375 1.375 C-0.963125 0.92125 -0.48875 0.4675 0 0 Z " fill="#24407F" transform="translate(81,76)"/>
<path d="M0 0 C1.04005702 3.38018531 1.08004482 6.4780279 1 10 C0.34 9.34 -0.32 8.68 -1 8 C-1.33 10.64 -1.66 13.28 -2 16 C-3.32 16 -4.64 16 -6 16 C-6.33 17.32 -6.66 18.64 -7 20 C-8.32 20.33 -9.64 20.66 -11 21 C-11 19.02 -11 17.04 -11 15 C-10.01 15 -9.02 15 -8 15 C-8.33 13.35 -8.66 11.7 -9 10 C-8.34 10 -7.68 10 -7 10 C-6.34 8.02 -5.68 6.04 -5 4 C-3.35 3.67 -1.7 3.34 0 3 C0 2.01 0 1.02 0 0 Z " fill="#1D2351" transform="translate(52,33)"/>
<path d="M0 0 C0.66 0.66 1.32 1.32 2 2 C1.34 2 0.68 2 0 2 C0.33 2.66 0.66 3.32 1 4 C1.22950319 6.204364 1.41075933 8.41392173 1.5625 10.625 C1.64628906 11.81351563 1.73007813 13.00203125 1.81640625 14.2265625 C1.87699219 15.14179687 1.93757813 16.05703125 2 17 C1.01 17 0.02 17 -1 17 C-2 12.25 -2 12.25 -2 10 C-2.33 9.01 -2.66 8.02 -3 7 C-3.66 6.67 -4.32 6.34 -5 6 C-5.33 7.32 -5.66 8.64 -6 10 C-5.34 10.33 -4.68 10.66 -4 11 C-4.66 13.31 -5.32 15.62 -6 18 C-6.33 18 -6.66 18 -7 18 C-7.268125 16.88625 -7.53625 15.7725 -7.8125 14.625 C-8.65809019 10.78159049 -8.65809019 10.78159049 -12 9 C-11.01 7.68 -10.02 6.36 -9 5 C-8.67 5.99 -8.34 6.98 -8 8 C-7.34 6.35 -6.68 4.7 -6 3 C-5.01 3.33 -4.02 3.66 -3 4 C-2.01 2.68 -1.02 1.36 0 0 Z " fill="#264B8D" transform="translate(82,35)"/>
<path d="M0 0 C0.99 0.33 1.98 0.66 3 1 C2 4 2 4 0 5 C0 5.66 0 6.32 0 7 C2.31 7 4.62 7 7 7 C6.67 8.98 6.34 10.96 6 13 C5.34 13 4.68 13 4 13 C4 12.01 4 11.02 4 10 C1.58380177 9.74969023 1.58380177 9.74969023 -1 10 C-1.99 11.485 -1.99 11.485 -3 13 C-2.34 13 -1.68 13 -1 13 C-0.875 16.375 -0.875 16.375 -1 20 C-1.66 20.66 -2.32 21.32 -3 22 C-3.66 22 -4.32 22 -5 22 C-4.7215625 20.8553125 -4.7215625 20.8553125 -4.4375 19.6875 C-3.77180827 16.91032625 -3.77180827 16.91032625 -5 14 C-4.54451823 11.26187393 -3.74685247 8.6798824 -3 6 C-4.65 5.67 -6.3 5.34 -8 5 C-6 2 -6 2 -4 1 C-4 1.99 -4 2.98 -4 4 C-2.68 3.67 -1.36 3.34 0 3 C0 2.01 0 1.02 0 0 Z " fill="#234685" transform="translate(55,50)"/>
<path d="M0 0 C0.33 0 0.66 0 1 0 C1 1.65 1 3.3 1 5 C0.34 5 -0.32 5 -1 5 C-1.33 5.99 -1.66 6.98 -2 8 C-2.33 8 -2.66 8 -3 8 C-3.33 10.31 -3.66 12.62 -4 15 C-4.33 14.01 -4.66 13.02 -5 12 C-5 13.32 -5 14.64 -5 16 C-5.66 16.99 -6.32 17.98 -7 19 C-9 17 -9 17 -9.1953125 13.7421875 C-9.17210937 12.46601562 -9.14890625 11.18984375 -9.125 9.875 C-9.10695312 8.59367187 -9.08890625 7.31234375 -9.0703125 5.9921875 C-9.04710937 5.00476562 -9.02390625 4.01734375 -9 3 C-7.68 2.67 -6.36 2.34 -5 2 C-5.66 3.32 -6.32 4.64 -7 6 C-4.91866684 6.21950154 -4.91866684 6.21950154 -3.5 4.6875 C-1.80950061 2.86396328 -1.80950061 2.86396328 0 0 Z " fill="#1A1D41" transform="translate(50,31)"/>
<path d="M0 0 C2.31 0 4.62 0 7 0 C7 2.64 7 5.28 7 8 C6.34 8 5.68 8 5 8 C5.99 9.98 6.98 11.96 8 14 C7.01 14 6.02 14 5 14 C5 14.66 5 15.32 5 16 C2.39724629 14.69862315 2.06833648 13.68453781 1 11 C0.5859375 8.203125 0.5859375 8.203125 0.375 5.25 C0.30023438 4.26515625 0.22546875 3.2803125 0.1484375 2.265625 C0.09945312 1.51796875 0.05046875 0.7703125 0 0 Z " fill="#1D2350" transform="translate(89,69)"/>
<path d="M0 0 C1.32 0 2.64 0 4 0 C3.67 1.65 3.34 3.3 3 5 C2.34 5 1.68 5 1 5 C0.67 7.31 0.34 9.62 0 12 C-0.66 11.34 -1.32 10.68 -2 10 C-2.99 10.495 -2.99 10.495 -4 11 C-5.5625 9.9375 -5.5625 9.9375 -7 8 C-6.6875 4.3125 -6.6875 4.3125 -6 1 C-5.38125 1.20625 -4.7625 1.4125 -4.125 1.625 C-3.073125 1.810625 -3.073125 1.810625 -2 2 C-1.34 1.34 -0.68 0.68 0 0 Z " fill="#1F2E60" transform="translate(62,62)"/>
<path d="M0 0 C2 2 2 2 2 5 C4.16666667 4.16666667 4.16666667 4.16666667 5 2 C5.66 2 6.32 2 7 2 C8.125 6.75 8.125 6.75 7 9 C7.33 9.99 7.66 10.98 8 12 C7.01 11.67 6.02 11.34 5 11 C5 12.65 5 14.3 5 16 C4.01 16.33 3.02 16.66 2 17 C1.01 15.68 0.02 14.36 -1 13 C-0.34 12.01 0.32 11.02 1 10 C1.0255089 7.4745777 1.0255089 7.4745777 0.625 4.8125 C0.51414062 3.91144531 0.40328125 3.01039062 0.2890625 2.08203125 C0.19367188 1.39496094 0.09828125 0.70789063 0 0 Z " fill="#1A0D28" transform="translate(98,71)"/>
<path d="M0 0 C0.66 1.32 1.32 2.64 2 4 C2 2.68 2 1.36 2 0 C3.65 0.33 5.3 0.66 7 1 C6.34 1.66 5.68 2.32 5 3 C5 3.99 5 4.98 5 6 C6.65 6.33 8.3 6.66 10 7 C9.375 8.9375 9.375 8.9375 8 11 C4.875 11.75 4.875 11.75 2 12 C2 11.34 2 10.68 2 10 C0.68 9.34 -0.64 8.68 -2 8 C-2 6.02 -2 4.04 -2 2 C-1.34 2 -0.68 2 0 2 C0 1.34 0 0.68 0 0 Z " fill="#1B173C" transform="translate(110,72)"/>
<path d="M0 0 C0.99 0.33 1.98 0.66 3 1 C3 1.99 3 2.98 3 4 C3.598125 4.103125 4.19625 4.20625 4.8125 4.3125 C7.28243264 5.08876455 8.32251235 6.07088921 10 8 C9.67 8.66 9.34 9.32 9 10 C8.34 9.67 7.68 9.34 7 9 C7.33 10.32 7.66 11.64 8 13 C6.35 13.33 4.7 13.66 3 14 C2.67 14.99 2.34 15.98 2 17 C1 15 1 15 1.5625 12 C1.706875 11.01 1.85125 10.02 2 9 C1.34 8.34 0.68 7.68 0 7 C-0.125 3.375 -0.125 3.375 0 0 Z " fill="#1D1B44" transform="translate(52,81)"/>
<path d="M0 0 C0.66 0.33 1.32 0.66 2 1 C1.17741935 9.22580645 1.17741935 9.22580645 -1 13 C-1 13.66 -1 14.32 -1 15 C-1.66 15 -2.32 15 -3 15 C-3.33 15.66 -3.66 16.32 -4 17 C-4.66 15.68 -5.32 14.36 -6 13 C-6.33 13 -6.66 13 -7 13 C-7 11.35 -7 9.7 -7 8 C-6.01 8.495 -6.01 8.495 -5 9 C-5 7.35 -5 5.7 -5 4 C-4.01 4 -3.02 4 -2 4 C-1.34 2.68 -0.68 1.36 0 0 Z " fill="#1A0516" transform="translate(66,35)"/>
<path d="M0 0 C1.32 0 2.64 0 4 0 C5.4606285 2.64738916 6 3.89448334 6 7 C5.34 7 4.68 7 4 7 C4 7.99 4 8.98 4 10 C3.34 10.66 2.68 11.32 2 12 C1.67 11.34 1.34 10.68 1 10 C0.01 10 -0.98 10 -2 10 C-2 11.98 -2 13.96 -2 16 C-4 13 -4 13 -3.75 10.5625 C-3.04945472 8.16897028 -2.13914775 6.20709876 -1 4 C-0.63215869 2.6757713 -0.28797019 1.34386088 0 0 Z " fill="#234888" transform="translate(26,65)"/>
<path d="M0 0 C4.29 0 8.58 0 13 0 C11.515 2.475 11.515 2.475 10 5 C9.01 5 8.02 5 7 5 C6.34 6.32 5.68 7.64 5 9 C1.39760962 5.86243419 1.0042756 5.02137798 0 0 Z " fill="#1E2A5C" transform="translate(69,35)"/>
<path d="M0 0 C0.66 0.66 1.32 1.32 2 2 C1.9765625 5.0390625 1.9765625 5.0390625 1.625 8.625 C1.51414062 9.81351563 1.40328125 11.00203125 1.2890625 12.2265625 C1.19367188 13.14179687 1.09828125 14.05703125 1 15 C0.01 15 -0.98 15 -2 15 C-1.67 13.02 -1.34 11.04 -1 9 C-2.32 9 -3.64 9 -5 9 C-5 6.36 -5 3.72 -5 1 C-3.68 1.33 -2.36 1.66 -1 2 C-0.67 1.34 -0.34 0.68 0 0 Z " fill="#213D77" transform="translate(112,63)"/>
<path d="M0 0 C2.475 0.99 2.475 0.99 5 2 C4.34 4.31 3.68 6.62 3 9 C2.401875 8.814375 1.80375 8.62875 1.1875 8.4375 C-1.16408762 7.77906313 -1.16408762 7.77906313 -4 9 C-4.33 9.99 -4.66 10.98 -5 12 C-5 11.01 -5 10.02 -5 9 C-5.66 8.67 -6.32 8.34 -7 8 C-6.34 8 -5.68 8 -5 8 C-4.67 6.02 -4.34 4.04 -4 2 C-3.67 2.66 -3.34 3.32 -3 4 C-2.01 4 -1.02 4 0 4 C0 2.68 0 1.36 0 0 Z " fill="#203165" transform="translate(50,45)"/>
<path d="M0 0 C1.5 1.125 1.5 1.125 3 3 C3.1875 6.1875 3.1875 6.1875 3 9 C0.69 8.34 -1.62 7.68 -4 7 C-4 6.34 -4 5.68 -4 5 C-5.32 5 -6.64 5 -8 5 C-8 4.34 -8 3.68 -8 3 C-8.66 3 -9.32 3 -10 3 C-9.67 2.34 -9.34 1.68 -9 1 C-7.35 1 -5.7 1 -4 1 C-4 1.99 -4 2.98 -4 4 C-3.34 3.01 -2.68 2.02 -2 1 C-1.67 1.33 -1.34 1.66 -1 2 C-0.67 1.34 -0.34 0.68 0 0 Z " fill="#213C73" transform="translate(98,58)"/>
<path d="M0 0 C1.98 0 3.96 0 6 0 C6 1.32 6 2.64 6 4 C6.99 4 7.98 4 9 4 C8.67 6.31 8.34 8.62 8 11 C7.67 10.01 7.34 9.02 7 8 C6.01 8 5.02 8 4 8 C3.34 9.32 2.68 10.64 2 12 C1.855625 10.9275 1.71125 9.855 1.5625 8.75 C1.16197423 6.07982819 0.69844346 3.59421856 0 1 C0 0.67 0 0.34 0 0 Z " fill="#264A8B" transform="translate(104,118)"/>
<path d="M0 0 C0.94875 0.185625 1.8975 0.37125 2.875 0.5625 C5.89868793 1.28686632 5.89868793 1.28686632 8 0 C8.33 0.99 8.66 1.98 9 3 C8.34 4.32 7.68 5.64 7 7 C3.37 7 -0.26 7 -4 7 C-4 6.34 -4 5.68 -4 5 C-2.68 5 -1.36 5 0 5 C0 3.35 0 1.7 0 0 Z " fill="#253C78" transform="translate(96,96)"/>
<path d="M0 0 C2.97 0 5.94 0 9 0 C9.33 1.32 9.66 2.64 10 4 C9.01 4 8.02 4 7 4 C6.67 5.65 6.34 7.3 6 9 C5.67 8.01 5.34 7.02 5 6 C3.35 6 1.7 6 0 6 C-1.125 2.25 -1.125 2.25 0 0 Z " fill="#1B1F45" transform="translate(83,35)"/>
<path d="M0 0 C0.66 0 1.32 0 2 0 C2 6.93 2 13.86 2 21 C0.35 20.67 -1.3 20.34 -3 20 C-3.33 19.01 -3.66 18.02 -4 17 C-3.01 16.67 -2.02 16.34 -1 16 C-1.01160156 15.09636719 -1.02320313 14.19273438 -1.03515625 13.26171875 C-1.04869141 11.49248047 -1.04869141 11.49248047 -1.0625 9.6875 C-1.07410156 8.51574219 -1.08570313 7.34398437 -1.09765625 6.13671875 C-1 3 -1 3 0 0 Z " fill="#160006" transform="translate(62,18)"/>
<path d="M0 0 C0.99 0.33 1.98 0.66 3 1 C3 1.66 3 2.32 3 3 C4.32 3 5.64 3 7 3 C7 4.65 7 6.3 7 8 C6.01 8.495 6.01 8.495 5 9 C4.67 9.99 4.34 10.98 4 12 C1.525 11.01 1.525 11.01 -1 10 C-0.649375 9.0925 -0.29875 8.185 0.0625 7.25 C0.96468779 4.12241564 1.13381507 2.94791919 0 0 Z " fill="#1A1C45" transform="translate(120,80)"/>
<path d="M0 0 C0.33 0.99 0.66 1.98 1 3 C2.32 3 3.64 3 5 3 C5.33 2.34 5.66 1.68 6 1 C8.21538462 6.41538462 8.21538462 6.41538462 7.125 9.375 C6.75375 9.91125 6.3825 10.4475 6 11 C6 10.34 6 9.68 6 9 C4.02 9 2.04 9 0 9 C-0.87890625 2.84765625 -0.87890625 2.84765625 -1 1 C-0.67 0.67 -0.34 0.34 0 0 Z " fill="#22407E" transform="translate(53,77)"/>
<path d="M0 0 C3.08089673 2.77280706 4.68775452 5.06326356 6 9 C2.7 9 -0.6 9 -4 9 C-2.94124926 5.59687262 -1.99097846 2.98646769 0 0 Z " fill="#24396F" transform="translate(47,94)"/>
<path d="M0 0 C0.66 0 1.32 0 2 0 C1.67 1.32 1.34 2.64 1 4 C1.66 4 2.32 4 3 4 C3.66 5.98 4.32 7.96 5 10 C4.34 10.66 3.68 11.32 3 12 C2.67 11.01 2.34 10.02 2 9 C0.68 9 -0.64 9 -2 9 C-2.33 8.01 -2.66 7.02 -3 6 C-3.99 6.495 -3.99 6.495 -5 7 C-5 5.02 -5 3.04 -5 1 C-4.01 1.495 -4.01 1.495 -3 2 C-2.34 2 -1.68 2 -1 2 C-0.67 1.34 -0.34 0.68 0 0 Z " fill="#1D173E" transform="translate(94,83)"/>
<path d="M0 0 C0.8971875 0.5259375 0.8971875 0.5259375 1.8125 1.0625 C4.10813214 2.33304698 4.10813214 2.33304698 7 1 C7 1.66 7 2.32 7 3 C7.5775 2.690625 8.155 2.38125 8.75 2.0625 C10.84294184 1.07416636 12.74535275 0.4831387 15 0 C14.01 0.495 14.01 0.495 13 1 C13 1.66 13 2.32 13 3 C12.34 3 11.68 3 11 3 C10.87625 4.27875 10.7525 5.5575 10.625 6.875 C10.25 10.75 10.25 10.75 8 13 C7.34 12.34 6.68 11.68 6 11 C6.66 10.67 7.32 10.34 8 10 C8 8.35 8 6.7 8 5 C7.1028125 5.2784375 7.1028125 5.2784375 6.1875 5.5625 C4 6 4 6 1 5 C0.67 3.35 0.34 1.7 0 0 Z " fill="#1D0925" transform="translate(28,69)"/>
<path d="M0 0 C0.66 0.33 1.32 0.66 2 1 C2 1.66 2 2.32 2 3 C4.97 3.495 4.97 3.495 8 4 C8.33 5.32 8.66 6.64 9 8 C8.01 8.495 8.01 8.495 7 9 C6.34 8.34 5.68 7.68 5 7 C4.01 6.67 3.02 6.34 2 6 C2.33 7.65 2.66 9.3 3 11 C1.35 11.33 -0.3 11.66 -2 12 C-2.33 10.35 -2.66 8.7 -3 7 C-2.01 7.495 -2.01 7.495 -1 8 C-0.67 5.36 -0.34 2.72 0 0 Z " fill="#274C8D" transform="translate(53,33)"/>
<path d="M0 0 C1.64956143 2.96921058 2.66052758 5.60527583 3 9 C2 11.1875 2 11.1875 1 13 C1.33 13.66 1.66 14.32 2 15 C1.01 16.485 1.01 16.485 0 18 C0 17.01 0 16.02 0 15 C-0.66 15 -1.32 15 -2 15 C-1.690625 13.824375 -1.690625 13.824375 -1.375 12.625 C-1.25125 11.75875 -1.1275 10.8925 -1 10 C-1.66 9.34 -2.32 8.68 -3 8 C-3 7.01 -3 6.02 -3 5 C-2.34 5 -1.68 5 -1 5 C-0.67 3.35 -0.34 1.7 0 0 Z " fill="#254E8F" transform="translate(97,72)"/>
<path d="M0 0 C2.31 0.33 4.62 0.66 7 1 C6.84402344 1.68707031 6.68804687 2.37414063 6.52734375 3.08203125 C6.33269531 3.98308594 6.13804688 4.88414063 5.9375 5.8125 C5.74027344 6.70582031 5.54304688 7.59914063 5.33984375 8.51953125 C4.79650537 11.12630779 4.79650537 11.12630779 6 14 C5.01 14.495 5.01 14.495 4 15 C3.34 14.67 2.68 14.34 2 14 C2 13.01 2 12.02 2 11 C1.34 11 0.68 11 0 11 C0.33 12.32 0.66 13.64 1 15 C0.34 15 -0.32 15 -1 15 C-1.33 14.01 -1.66 13.02 -2 12 C-0.36587557 10.29159719 0.86906094 9.06546953 3 8 C3.65213292 5.97536745 3.65213292 5.97536745 4 4 C2.68 3.34 1.36 2.68 0 2 C0 1.34 0 0.68 0 0 Z " fill="#1B163C" transform="translate(46,54)"/>
<path d="M0 0 C0.99 0.33 1.98 0.66 3 1 C3 4 3 4 2 7 C0.35 6.67 -1.3 6.34 -3 6 C-3 6.66 -3 7.32 -3 8 C-5 7 -5 7 -6 4 C-6.66 4.66 -7.32 5.32 -8 6 C-8 5.01 -8 4.02 -8 3 C-8.66 2.67 -9.32 2.34 -10 2 C-9.04287109 1.90912109 -9.04287109 1.90912109 -8.06640625 1.81640625 C-6.82697266 1.69072266 -6.82697266 1.69072266 -5.5625 1.5625 C-4.73878906 1.48128906 -3.91507813 1.40007813 -3.06640625 1.31640625 C-1.01337975 1.21069185 -1.01337975 1.21069185 0 0 Z " fill="#191332" transform="translate(36,62)"/>
<path d="M0 0 C0.33 0.66 0.66 1.32 1 2 C1.66 2 2.32 2 3 2 C3.33 4.97 3.66 7.94 4 11 C2.02 11.99 2.02 11.99 0 13 C-0.33 11.35 -0.66 9.7 -1 8 C-1.99 8 -2.98 8 -4 8 C-3.67 7.34 -3.34 6.68 -3 6 C-2.01 6 -1.02 6 0 6 C-0.2784375 4.7934375 -0.2784375 4.7934375 -0.5625 3.5625 C-0.706875 2.716875 -0.85125 1.87125 -1 1 C-0.67 0.67 -0.34 0.34 0 0 Z " fill="#244380" transform="translate(103,81)"/>
<path d="M0 0 C0.66 0 1.32 0 2 0 C2.66 0.99 3.32 1.98 4 3 C4.66 2.67 5.32 2.34 6 2 C5.67 3.65 5.34 5.3 5 7 C4.01 7 3.02 7 2 7 C2 8.65 2 10.3 2 12 C1.34 12 0.68 12 0 12 C0 11.01 0 10.02 0 9 C-0.99 9 -1.98 9 -3 9 C-3 7.35 -3 5.7 -3 4 C-2.34 3.67 -1.68 3.34 -1 3 C-0.67 2.01 -0.34 1.02 0 0 Z " fill="#1E1940" transform="translate(63,79)"/>
<path d="M0 0 C2 3 2 3 2 5 C3.32 5 4.64 5 6 5 C6.33 4.01 6.66 3.02 7 2 C7.99 2 8.98 2 10 2 C10.33 3.65 10.66 5.3 11 7 C10.01 7.66 9.02 8.32 8 9 C7.67 9.33 7.34 9.66 7 10 C6.34 10 5.68 10 5 10 C5 9.01 5 8.02 5 7 C4.34 7 3.68 7 3 7 C2.67 7.66 2.34 8.32 2 9 C0.4375 7.3125 0.4375 7.3125 -1 5 C-0.6875 2.25 -0.6875 2.25 0 0 Z " fill="#1D102F" transform="translate(89,52)"/>
<path d="M0 0 C0.66 0.99 1.32 1.98 2 3 C1.01 3.495 1.01 3.495 0 4 C0.66 5.65 1.32 7.3 2 9 C1.01 9.33 0.02 9.66 -1 10 C-1.33 9.34 -1.66 8.68 -2 8 C-2 8.99 -2 9.98 -2 11 C-1.34 11 -0.68 11 0 11 C0 11.99 0 12.98 0 14 C-1.32 14 -2.64 14 -4 14 C-4.2493357 12.39884424 -4.47378648 10.79379841 -4.6875 9.1875 C-4.81511719 8.29417969 -4.94273438 7.40085937 -5.07421875 6.48046875 C-5 4 -5 4 -3.64453125 2.23828125 C-2 1 -2 1 0 0 Z " fill="#1B163E" transform="translate(117,89)"/>
<path d="M0 0 C2.36843186 2.36843186 2.28271041 3.08031733 2.5 6.3125 C2.81193888 9.90557378 3.58623745 12.66755969 5 16 C4.67 16.66 4.34 17.32 4 18 C3.34 18 2.68 18 2 18 C1.67 17.34 1.34 16.68 1 16 C0.34 16 -0.32 16 -1 16 C-0.9278125 15.18015625 -0.855625 14.3603125 -0.78125 13.515625 C-0.6884375 12.43796875 -0.595625 11.3603125 -0.5 10.25 C-0.4071875 9.18265625 -0.314375 8.1153125 -0.21875 7.015625 C-0.04947717 4.6820782 0 2.33967818 0 0 Z " fill="#275194" transform="translate(88,69)"/>
<path d="M0 0 C0.4125 0.66 0.825 1.32 1.25 2 C1.8275 2.66 2.405 3.32 3 4 C4.32 4 5.64 4 7 4 C7 3.34 7 2.68 7 2 C7.66 2 8.32 2 9 2 C8.67 3.98 8.34 5.96 8 8 C6.68 8 5.36 8 4 8 C3.67 8.99 3.34 9.98 3 11 C2.34 10.67 1.68 10.34 1 10 C1 9.01 1 8.02 1 7 C0.34 6.67 -0.32 6.34 -1 6 C-0.67 4.02 -0.34 2.04 0 0 Z " fill="#234380" transform="translate(42,27)"/>
<path d="M0 0 C0.66 0.66 1.32 1.32 2 2 C2.33 1.34 2.66 0.68 3 0 C3.99 0 4.98 0 6 0 C6 0.99 6 1.98 6 3 C6.66 3.33 7.32 3.66 8 4 C7.67 5.65 7.34 7.3 7 9 C6.01 9 5.02 9 4 9 C1.25 6.1875 1.25 6.1875 -1 3 C-0.67 2.01 -0.34 1.02 0 0 Z " fill="#202754" transform="translate(63,67)"/>
<path d="M0 0 C1.32 0 2.64 0 4 0 C4.66 1.32 5.32 2.64 6 4 C5.01 4.495 5.01 4.495 4 5 C4 8.3 4 11.6 4 15 C3.34 13.68 2.68 12.36 2 11 C1.34 10.01 0.68 9.02 0 8 C-0.33 8.66 -0.66 9.32 -1 10 C-0.67 6.7 -0.34 3.4 0 0 Z " fill="#1F1F48" transform="translate(85,64)"/>
<path d="M0 0 C1.33332095 2.6666419 0.67102033 4.16680303 0 7 C0.66 7 1.32 7 2 7 C2.33 5.68 2.66 4.36 3 3 C6.07692308 8.41538462 6.07692308 8.41538462 5.6875 11.375 C5.460625 11.91125 5.23375 12.4475 5 13 C4.01 12.67 3.02 12.34 2 12 C1.67 11.01 1.34 10.02 1 9 C-1.00016466 7.79117904 -1.00016466 7.79117904 -3 7 C-2.01 4.69 -1.02 2.38 0 0 Z " fill="#1D1C46" transform="translate(107,110)"/>
<path d="M0 0 C0.6875 1.75 0.6875 1.75 1 4 C0.00692179 5.33849671 -0.99357052 6.67151309 -2 8 C-2.25124826 10.66761764 -2.25124826 10.66761764 -2 13 C-3.32 13 -4.64 13 -6 13 C-6.82638376 10.10765685 -7 8.11257569 -7 5 C-6.01 4.67 -5.02 4.34 -4 4 C-4 4.66 -4 5.32 -4 6 C-3.34 5.67 -2.68 5.34 -2 5 C-2 4.01 -2 3.02 -2 2 C-1.34 2 -0.68 2 0 2 C0 1.34 0 0.68 0 0 Z " fill="#201D45" transform="translate(82,78)"/>
<path d="M0 0 C4.29 0 8.58 0 13 0 C12.34 0.66 11.68 1.32 11 2 C10.01 1.67 9.02 1.34 8 1 C8 1.66 8 2.32 8 3 C8.66 3.33 9.32 3.66 10 4 C9.34 5.65 8.68 7.3 8 9 C7.34 8.67 6.68 8.34 6 8 C6 6.02 6 4.04 6 2 C5.01 3.485 5.01 3.485 4 5 C3.34 4.67 2.68 4.34 2 4 C2 3.34 2 2.68 2 2 C1.34 2 0.68 2 0 2 C0 1.34 0 0.68 0 0 Z " fill="#171435" transform="translate(107,62)"/>
<path d="M0 0 C0.99 0 1.98 0 3 0 C3.05395478 1.62463842 3.09277195 3.24978541 3.125 4.875 C3.14820312 5.77992187 3.17140625 6.68484375 3.1953125 7.6171875 C3 10 3 10 1 12 C1 11.34 1 10.68 1 10 C0.01 9.67 -0.98 9.34 -2 9 C-2 7.33333333 -2 5.66666667 -2 4 C-1.34 4 -0.68 4 0 4 C0 2.68 0 1.36 0 0 Z " fill="#20386F" transform="translate(124,88)"/>
<path d="M0 0 C0.061875 0.598125 0.12375 1.19625 0.1875 1.8125 C0.83569219 4.25540917 0.83569219 4.25540917 3.5 5.5 C6 7 6 7 6.9375 9.0625 C6.958125 9.701875 6.97875 10.34125 7 11 C6.34 11.66 5.68 12.32 5 13 C5 12.34 5 11.68 5 11 C4.34 11 3.68 11 3 11 C1.2856382 9.04072937 -0.38405168 7.04119788 -2 5 C-1.34 3.35 -0.68 1.7 0 0 Z " fill="#254F92" transform="translate(120,72)"/>
<path d="M0 0 C0.33 0.99 0.66 1.98 1 3 C0.01 3.33 -0.98 3.66 -2 4 C-1.34 4.33 -0.68 4.66 0 5 C0 5.99 0 6.98 0 8 C-2.97 7.505 -2.97 7.505 -6 7 C-6 5.02 -6 3.04 -6 1 C-3 0 -3 0 0 0 Z " fill="#1D1D46" transform="translate(30,74)"/>
<path d="M0 0 C0.33 0 0.66 0 1 0 C1.66 2.64 2.32 5.28 3 8 C2.01 8.33 1.02 8.66 0 9 C-0.73323796 11.01508358 -0.73323796 11.01508358 -1 13 C-2.32 13.33 -3.64 13.66 -5 14 C-5 12.02 -5 10.04 -5 8 C-4.01 8 -3.02 8 -2 8 C-2.33 6.35 -2.66 4.7 -3 3 C-2.34 3 -1.68 3 -1 3 C-0.67 2.01 -0.34 1.02 0 0 Z " fill="#180B25" transform="translate(46,40)"/>
<path d="M0 0 C0.99 0.33 1.98 0.66 3 1 C3 2.32 3 3.64 3 5 C3.66 5 4.32 5 5 5 C5.66 8.3 6.32 11.6 7 15 C6.01 15.495 6.01 15.495 5 16 C4.67 13.36 4.34 10.72 4 8 C2.02 8 0.04 8 -2 8 C-1.34 5.36 -0.68 2.72 0 0 Z " fill="#1C1437" transform="translate(69,40)"/>
<path d="M0 0 C2.5654594 2.5654594 2.54046087 4.47686668 3 8 C3.99 8.33 4.98 8.66 6 9 C4.50260417 10.20442708 3.00520833 11.40885417 1.5078125 12.61328125 C-0.25292107 14.12270545 -0.25292107 14.12270545 -2 17 C-2.08226668 13.95613276 -1.97608217 11.92824652 -1 9 C-0.34 9 0.32 9 1 9 C1 7.68 1 6.36 1 5 C0.34 5 -0.32 5 -1 5 C-0.67 3.35 -0.34 1.7 0 0 Z " fill="#285093" transform="translate(53,19)"/>
<path d="M0 0 C0.99 0.66 1.98 1.32 3 2 C3.99 2.33 4.98 2.66 6 3 C5.6875 4.875 5.6875 4.875 5 7 C4.01 7.66 3.02 8.32 2 9 C-2 3.25 -2 3.25 -2 1 C-1.34 0.67 -0.68 0.34 0 0 Z " fill="#24376F" transform="translate(114,118)"/>
<path d="M0 0 C1.32 0.33 2.64 0.66 4 1 C4 3.31 4 5.62 4 8 C3.01 7.01 2.02 6.02 1 5 C0.01 6.485 0.01 6.485 -1 8 C-1.66 8 -2.32 8 -3 8 C-3 7.34 -3 6.68 -3 6 C-3.99 5.67 -4.98 5.34 -6 5 C-5.195625 4.54625 -4.39125 4.0925 -3.5625 3.625 C-0.91143428 2.25274335 -0.91143428 2.25274335 0 0 Z " fill="#285499" transform="translate(81,76)"/>
<path d="M0 0 C2.475 0.99 2.475 0.99 5 2 C5 2.99 5 3.98 5 5 C5.66 5.33 6.32 5.66 7 6 C6.01 6 5.02 6 4 6 C3.71125 6.598125 3.4225 7.19625 3.125 7.8125 C2 10 2 10 0 13 C-0.99259332 10.02222003 -1.01418361 8.92084236 -0.5625 5.9375 C0.04714045 2.33292944 0.04714045 2.33292944 0 0 Z " fill="#1F0F2E" transform="translate(65,57)"/>
<path d="M0 0 C1.485 0.99 1.485 0.99 3 2 C2.34 2 1.68 2 1 2 C1 3.98 1 5.96 1 8 C1.99 7.67 2.98 7.34 4 7 C5 8 5 8 5.0625 11.0625 C5.041875 12.031875 5.02125 13.00125 5 14 C4.34 12.68 3.68 11.36 3 10 C2.01 13.465 2.01 13.465 1 17 C0.67 17 0.34 17 0 17 C0 11.39 0 5.78 0 0 Z " fill="#140D22" transform="translate(85,110)"/>
<path d="M0 0 C0.99 0.33 1.98 0.66 3 1 C3 3.64 3 6.28 3 9 C2.01 9.33 1.02 9.66 0 10 C-0.99 8.68 -1.98 7.36 -3 6 C-2.01 4.02 -1.02 2.04 0 0 Z " fill="#1C204D" transform="translate(100,78)"/>
<path d="M0 0 C1.98 0 3.96 0 6 0 C5.49396008 2.16874252 5.00016187 3.99967627 4 6 C3.34 6 2.68 6 2 6 C1.67 6.66 1.34 7.32 1 8 C0.26919734 6.02253397 -0.39421747 4.01927511 -1 2 C-0.67 1.34 -0.34 0.68 0 0 Z " fill="#1A1F48" transform="translate(121,62)"/>
<path d="M0 0 C2.875 0.3125 2.875 0.3125 6 1 C6.66 1.99 7.32 2.98 8 4 C7.34 4 6.68 4 6 4 C5.67 4.66 5.34 5.32 5 6 C3.35 6 1.7 6 0 6 C0 4.02 0 2.04 0 0 Z " fill="#1E2D5B" transform="translate(86,112)"/>
<path d="M0 0 C1.65 0 3.3 0 5 0 C5.625 1.875 5.625 1.875 6 4 C5.34 4.66 4.68 5.32 4 6 C3.67 5.34 3.34 4.68 3 4 C2.01 4 1.02 4 0 4 C0 5.98 0 7.96 0 10 C-2 7 -2 7 -1.6875 4.4375 C-1 2 -1 2 0 0 Z " fill="#275398" transform="translate(24,71)"/>
<path d="M0 0 C0.66 0.99 1.32 1.98 2 3 C1.01 4.485 1.01 4.485 0 6 C0.66 6 1.32 6 2 6 C2.125 9.375 2.125 9.375 2 13 C1.34 13.66 0.68 14.32 0 15 C-0.66 15 -1.32 15 -2 15 C-1.814375 14.236875 -1.62875 13.47375 -1.4375 12.6875 C-0.77180827 9.91032625 -0.77180827 9.91032625 -2 7 C-1.40206327 4.64811553 -0.74118205 2.31074405 0 0 Z " fill="#295EA5" transform="translate(52,57)"/>
<path d="M0 0 C0.66 0.33 1.32 0.66 2 1 C2.33 1.99 2.66 2.98 3 4 C3.66 3.01 4.32 2.02 5 1 C5 1.99 5 2.98 5 4 C5.66 4.33 6.32 4.66 7 5 C6.34 6.32 5.68 7.64 5 9 C3.35 8.67 1.7 8.34 0 8 C-0.79953138 4.71303767 -1.09658936 3.28976808 0 0 Z " fill="#264F92" transform="translate(91,49)"/>
<path d="M0 0 C0.66 0 1.32 0 2 0 C2.33 1.32 2.66 2.64 3 4 C3.66 4 4.32 4 5 4 C5 4.66 5 5.32 5 6 C2.69 6.33 0.38 6.66 -2 7 C-2 3.89448334 -1.4606285 2.64738916 0 0 Z " fill="#212758" transform="translate(100,125)"/>
<path d="M0 0 C2.125 0.9375 2.125 0.9375 4 2 C3 4 2 6 1 8 C0.34 8 -0.32 8 -1 8 C-1.33 5.69 -1.66 3.38 -2 1 C-1.34 0.67 -0.68 0.34 0 0 Z " fill="#223A72" transform="translate(102,112)"/>
<path d="M0 0 C2.0625 2.3125 2.0625 2.3125 4 5 C3.67 5.99 3.34 6.98 3 8 C1.35 8 -0.3 8 -2 8 C-2.6875 5.6875 -2.6875 5.6875 -3 3 C-1.5625 1.1875 -1.5625 1.1875 0 0 Z " fill="#284988" transform="translate(82,83)"/>
<path d="M0 0 C0.33 0 0.66 0 1 0 C1.12375 1.093125 1.2475 2.18625 1.375 3.3125 C1.75464801 7.07381802 1.75464801 7.07381802 4 10 C3.34 10.66 2.68 11.32 2 12 C1.34 12 0.68 12 0 12 C-1.83807713 8.21572356 -2.2031953 6.04711146 -1 2 C-0.67 1.34 -0.34 0.68 0 0 Z " fill="#264987" transform="translate(51,81)"/>
<path d="M0 0 C0.33 1.32 0.66 2.64 1 4 C1.66 4 2.32 4 3 4 C3 4.66 3 5.32 3 6 C4.32 6.33 5.64 6.66 7 7 C5.68 7 4.36 7 3 7 C3 7.66 3 8.32 3 9 C1.35 9.33 -0.3 9.66 -2 10 C-1.34 6.7 -0.68 3.4 0 0 Z " fill="#254584" transform="translate(39,72)"/>
<path d="M0 0 C1.98 0.495 1.98 0.495 4 1 C4 3.31 4 5.62 4 8 C3.01 7.67 2.02 7.34 1 7 C0.67 7.66 0.34 8.32 0 9 C-0.84454356 5.62182575 -1.10844919 3.32534757 0 0 Z " fill="#1F1E4B" transform="translate(69,49)"/>
<path d="M0 0 C0.66 0.33 1.32 0.66 2 1 C1.14285714 9.57142857 1.14285714 9.57142857 -1 13 C-1.66 12.34 -2.32 11.68 -3 11 C-3 9.68 -3 8.36 -3 7 C-2.34 7 -1.68 7 -1 7 C-0.67 4.69 -0.34 2.38 0 0 Z " fill="#1F224C" transform="translate(66,35)"/>
<path d="M0 0 C0 1.98 0 3.96 0 6 C-0.33 5.01 -0.66 4.02 -1 3 C-1 4.32 -1 5.64 -1 7 C-1.99 8.485 -1.99 8.485 -3 10 C-3.66 9.34 -4.32 8.68 -5 8 C-4.625 4.375 -4.625 4.375 -4 1 C-1 0 -1 0 0 0 Z " fill="#234079" transform="translate(46,40)"/>
<path d="M0 0 C2.475 0.495 2.475 0.495 5 1 C5 4.69418201 3.71820705 6.77836178 2 10 C1.34 8.68 0.68 7.36 0 6 C0.99 5.01 1.98 4.02 3 3 C2.01 3 1.02 3 0 3 C0 2.01 0 1.02 0 0 Z " fill="#1F2755" transform="translate(120,111)"/>
<path d="M0 0 C0.99 0 1.98 0 3 0 C3.66 0.99 4.32 1.98 5 3 C4.01 3.495 4.01 3.495 3 4 C2.34227572 7.02934491 2.34227572 7.02934491 2 10 C1.01 10 0.02 10 -1 10 C-1.33 8.35 -1.66 6.7 -2 5 C-1.34 4.67 -0.68 4.34 0 4 C0 2.68 0 1.36 0 0 Z " fill="#275396" transform="translate(111,106)"/>
<path d="M0 0 C1.9451 2.91765 2.45276317 4.62537285 3 8 C0.69 8 -1.62 8 -4 8 C-4.33 7.34 -4.66 6.68 -5 6 C-4.34 6 -3.68 6 -3 6 C-2.690625 5.38125 -2.38125 4.7625 -2.0625 4.125 C-1.375 2.75 -0.6875 1.375 0 0 Z " fill="#284787" transform="translate(61,95)"/>
<path d="M0 0 C0.66 0 1.32 0 2 0 C2.33 0.66 2.66 1.32 3 2 C3.66 2.165 4.32 2.33 5 2.5 C5.66 2.665 6.32 2.83 7 3 C7.33 3.66 7.66 4.32 8 5 C7.25 7.0625 7.25 7.0625 6 9 C5.01 9.33 4.02 9.66 3 10 C3 9.34 3 8.68 3 8 C3.66 8 4.32 8 5 8 C5 7.01 5 6.02 5 5 C3.68 4.67 2.36 4.34 1 4 C0.67 2.68 0.34 1.36 0 0 Z " fill="#1C2656" transform="translate(43,54)"/>
<path d="M0 0 C0.99 0.33 1.98 0.66 3 1 C3 3.66666667 3 6.33333333 3 9 C2.34 9 1.68 9 1 9 C0.01 9.495 0.01 9.495 -1 10 C-1.625 8.125 -1.625 8.125 -2 6 C-1.34 5.34 -0.68 4.68 0 4 C-0.33 3.01 -0.66 2.02 -1 1 C-0.67 0.67 -0.34 0.34 0 0 Z " fill="#1C1D4B" transform="translate(115,104)"/>
<path d="M0 0 C1.32 0.66 2.64 1.32 4 2 C3.814375 2.598125 3.62875 3.19625 3.4375 3.8125 C2.77906313 6.16408762 2.77906313 6.16408762 4 9 C3.01 9.495 3.01 9.495 2 10 C0.4375 8.9375 0.4375 8.9375 -1 7 C-0.6875 3.3125 -0.6875 3.3125 0 0 Z " fill="#213F7E" transform="translate(56,63)"/>
<path d="M0 0 C1.32 0.66 2.64 1.32 4 2 C3.01 2.99 2.02 3.98 1 5 C1 4.34 1 3.68 1 3 C0.34 3 -0.32 3 -1 3 C-0.67 5.31 -0.34 7.62 0 10 C-1.5625 8.75 -1.5625 8.75 -3 7 C-2.6875 4.8125 -2.6875 4.8125 -2 3 C-2.66 2.67 -3.32 2.34 -4 2 C-3.34 1.67 -2.68 1.34 -2 1 C-1.34 1.33 -0.68 1.66 0 2 C0 1.34 0 0.68 0 0 Z " fill="#253E7B" transform="translate(86,61)"/>
<path d="M0 0 C1.5625 1.8125 1.5625 1.8125 3 4 C2.67 4.99 2.34 5.98 2 7 C2.66 7.33 3.32 7.66 4 8 C2.68 8.33 1.36 8.66 0 9 C0 7.68 0 6.36 0 5 C-0.66 4.67 -1.32 4.34 -2 4 C-2 4.99 -2 5.98 -2 7 C-2.66 7 -3.32 7 -4 7 C-3.39816251 4.97954558 -2.72693904 2.97888961 -2 1 C-1.34 0.67 -0.68 0.34 0 0 Z " fill="#1B1235" transform="translate(57,46)"/>
<path d="M0 0 C0.99 0.99 1.98 1.98 3 3 C2.67 3.99 2.34 4.98 2 6 C3.98 6.66 5.96 7.32 8 8 C7.01 8.66 6.02 9.32 5 10 C5 9.34 5 8.68 5 8 C4.34 8 3.68 8 3 8 C3 8.66 3 9.32 3 10 C1.35 10.33 -0.3 10.66 -2 11 C-2 10.34 -2 9.68 -2 9 C-0.68 9 0.64 9 2 9 C1.01 6.36 0.02 3.72 -1 1 C-0.67 0.67 -0.34 0.34 0 0 Z " fill="#1B1336" transform="translate(46,21)"/>
<path d="M0 0 C0.33 0 0.66 0 1 0 C1.125 7.75 1.125 7.75 0 10 C-0.66 10 -1.32 10 -2 10 C-2.33 7.69 -2.66 5.38 -3 3 C-2.34 3 -1.68 3 -1 3 C-0.67 2.01 -0.34 1.02 0 0 Z " fill="#203B74" transform="translate(126,65)"/>
<path d="M0 0 C0.66 0.33 1.32 0.66 2 1 C2.38281159 6.23175837 1.21854707 9.37802694 -1 14 C-2.125 12.25 -2.125 12.25 -3 10 C-2.125 8.0625 -2.125 8.0625 -1 6 C-0.96125079 4.33378384 -0.9549714 2.66605828 -1 1 C-0.67 0.67 -0.34 0.34 0 0 Z " fill="#2C5DA4" transform="translate(68,35)"/>
<path d="M0 0 C0.928125 0.0825 1.85625 0.165 2.8125 0.25 C1.8125 3.25 1.8125 3.25 0 4.5 C-2.52693414 5.36637742 -3.70971994 5.13492145 -6.1875 4.25 C-4.36434338 1.00883268 -3.82500054 0.30000004 0 0 Z " fill="#1D1C42" transform="translate(78.1875,75.75)"/>
<path d="M0 0 C1.98 0 3.96 0 6 0 C6 0.99 6 1.98 6 3 C6.66 3 7.32 3 8 3 C8 3.66 8 4.32 8 5 C8.99 5.33 9.98 5.66 11 6 C10.01 6.495 10.01 6.495 9 7 C8.01 6.67 7.02 6.34 6 6 C6 5.34 6 4.68 6 4 C4.68 4 3.36 4 2 4 C2 3.34 2 2.68 2 2 C1.34 2 0.68 2 0 2 C0 1.34 0 0.68 0 0 Z " fill="#264C8D" transform="translate(88,59)"/>
<path d="M0 0 C1.5625 1.8125 1.5625 1.8125 3 4 C2.67 4.99 2.34 5.98 2 7 C1.34 5.68 0.68 4.36 0 3 C-0.66 3 -1.32 3 -2 3 C-2.66 4.32 -3.32 5.64 -4 7 C-4.66 5.68 -5.32 4.36 -6 3 C-4.125 1.9375 -4.125 1.9375 -2 1 C-1.34 1.33 -0.68 1.66 0 2 C0 1.34 0 0.68 0 0 Z " fill="#2A589F" transform="translate(102,122)"/>
<path d="M0 0 C0.33 0.99 0.66 1.98 1 3 C1.99 3 2.98 3 4 3 C3.33333333 5 2.66666667 7 2 9 C0.68 8.01 -0.64 7.02 -2 6 C-1.125 1.125 -1.125 1.125 0 0 Z " fill="#28579E" transform="translate(119,111)"/>
<path d="M0 0 C3 1 3 1 4.3125 3.3125 C5 6 5 6 4.125 8.3125 C3.568125 9.1478125 3.568125 9.1478125 3 10 C1.9375 8.125 1.9375 8.125 1 6 C1.33 5.34 1.66 4.68 2 4 C1.34 4 0.68 4 0 4 C0 2.68 0 1.36 0 0 Z " fill="#274986" transform="translate(72,80)"/>
<path d="M0 0 C0.33 0 0.66 0 1 0 C1.33 4.29 1.66 8.58 2 13 C1.01 13 0.02 13 -1 13 C-1.85373365 9.58506541 -2.0809485 7.35094035 -1 4 C-0.814375 3.2575 -0.62875 2.515 -0.4375 1.75 C-0.293125 1.1725 -0.14875 0.595 0 0 Z " fill="#2B61A9" transform="translate(82,39)"/>
<path d="M0 0 C1.20628008 2.33214148 2.1654738 4.49642139 3 7 C2.01 7.33 1.02 7.66 0 8 C-0.66 8.66 -1.32 9.32 -2 10 C-3.125 4.25 -3.125 4.25 -2 2 C-1.34 2 -0.68 2 0 2 C0 1.34 0 0.68 0 0 Z " fill="#19193E" transform="translate(95,45)"/>
<path d="M0 0 C2.59482129 2.59482129 2.69990302 4.39883625 3 8 C2.34 8.66 1.68 9.32 1 10 C1 9.34 1 8.68 1 8 C-0.32 7.67 -1.64 7.34 -3 7 C-2.01 6.34 -1.02 5.68 0 5 C-0.33 4.01 -0.66 3.02 -1 2 C-0.67 1.34 -0.34 0.68 0 0 Z " fill="#285093" transform="translate(58,78)"/>
<path d="M0 0 C2.97 0.495 2.97 0.495 6 1 C6 1.66 6 2.32 6 3 C4.68 3 3.36 3 2 3 C2 4.98 2 6.96 2 9 C0.68 8.67 -0.64 8.34 -2 8 C-2 7.01 -2 6.02 -2 5 C-1.34 4.67 -0.68 4.34 0 4 C0 2.68 0 1.36 0 0 Z " fill="#264E92" transform="translate(30,73)"/>
<path d="M0 0 C1.33333333 0.66666667 2.66666667 1.33333333 4 2 C4 2.99 4 3.98 4 5 C2.35 5 0.7 5 -1 5 C-1.33 6.32 -1.66 7.64 -2 9 C-3 6 -3 6 -1.5625 2.8125 C-1.046875 1.884375 -0.53125 0.95625 0 0 Z " fill="#254785" transform="translate(53,13)"/>
<path d="M0 0 C1.98 0.99 3.96 1.98 6 3 C5.67 3.99 5.34 4.98 5 6 C3.35 5.67 1.7 5.34 0 5 C-0.33 4.01 -0.66 3.02 -1 2 C-0.67 1.34 -0.34 0.68 0 0 Z " fill="#202556" transform="translate(91,120)"/>
<path d="M0 0 C0.33 0 0.66 0 1 0 C1.125 2.875 1.125 2.875 1 6 C0.34 6.66 -0.32 7.32 -1 8 C-1.99 7.34 -2.98 6.68 -4 6 C-4 5.01 -4 4.02 -4 3 C-2.68 2.67 -1.36 2.34 0 2 C0 1.34 0 0.68 0 0 Z " fill="#19193D" transform="translate(126,105)"/>
<path d="M0 0 C0 0.66 0 1.32 0 2 C1.32 2.66 2.64 3.32 4 4 C0 4 0 4 -2 3 C-2.33 3.99 -2.66 4.98 -3 6 C-3.33 4.35 -3.66 2.7 -4 1 C-2 0 -2 0 0 0 Z " fill="#203B77" transform="translate(122,99)"/>
<path d="M0 0 C1.5 1.25 1.5 1.25 3 3 C3 4.32 3 5.64 3 7 C0.69 7 -1.62 7 -4 7 C-4 6.34 -4 5.68 -4 5 C-2.68 5 -1.36 5 0 5 C0 3.35 0 1.7 0 0 Z " fill="#242756" transform="translate(96,96)"/>
<path d="M0 0 C1.9375 0.625 1.9375 0.625 4 2 C4.75 5.125 4.75 5.125 5 8 C3.35 8 1.7 8 0 8 C-1.125 2.25 -1.125 2.25 0 0 Z " fill="#28579F" transform="translate(81,53)"/>
<path d="M0 0 C2 1 2 1 3 3 C3.039992 4.99960012 3.04346799 7.00047242 3 9 C2.01 9 1.02 9 0 9 C0 6.03 0 3.06 0 0 Z " fill="#1E3069" transform="translate(85,72)"/>
<path d="M0 0 C0.66 0.66 1.32 1.32 2 2 C1.34 2 0.68 2 0 2 C0 3.98 0 5.96 0 8 C-0.66 8 -1.32 8 -2 8 C-2.33 8.66 -2.66 9.32 -3 10 C-3.75 7.8125 -3.75 7.8125 -4 5 C-2.0625 2.1875 -2.0625 2.1875 0 0 Z " fill="#233F7C" transform="translate(82,35)"/>
<path d="M0 0 C0.33 0 0.66 0 1 0 C1.125 3.375 1.125 3.375 1 7 C0.34 7.66 -0.32 8.32 -1 9 C-2.32 8.34 -3.64 7.68 -5 7 C-4.0409375 6.1028125 -4.0409375 6.1028125 -3.0625 5.1875 C-0.79689611 3.09189663 -0.79689611 3.09189663 0 0 Z " fill="#1E1636" transform="translate(61,23)"/>
<path d="M0 0 C0.66 0 1.32 0 2 0 C2 0.99 2 1.98 2 3 C3.65 3.33 5.3 3.66 7 4 C6.67 4.66 6.34 5.32 6 6 C4.68 5.67 3.36 5.34 2 5 C1.67 5.66 1.34 6.32 1 7 C1 6.34 1 5.68 1 5 C0.34 4.67 -0.32 4.34 -1 4 C-0.34 4 0.32 4 1 4 C0.67 2.68 0.34 1.36 0 0 Z " fill="#274B8C" transform="translate(90,64)"/>
<path d="M0 0 C0.33 0.66 0.66 1.32 1 2 C1.66 2.33 2.32 2.66 3 3 C2.67 3.99 2.34 4.98 2 6 C0.35 5.67 -1.3 5.34 -3 5 C-1.125 1.125 -1.125 1.125 0 0 Z " fill="#1D183F" transform="translate(85,50)"/>
<path d="M0 0 C1.9375 0.6875 1.9375 0.6875 4 2 C4.93580311 4.87939419 5.37245106 6.25509788 4 9 C1.18167487 7.59083743 0.97406539 5.92219617 0 3 C0 2.01 0 1.02 0 0 Z " fill="#265193" transform="translate(58,46)"/>
<path d="M0 0 C0.33 0 0.66 0 1 0 C1 1.65 1 3.3 1 5 C0.34 5 -0.32 5 -1 5 C-1.33 5.99 -1.66 6.98 -2 8 C-4.0625 9.1875 -4.0625 9.1875 -6 10 C-5.1875 7.0625 -5.1875 7.0625 -4 4 C-3.01 3.67 -2.02 3.34 -1 3 C-0.67 2.01 -0.34 1.02 0 0 Z " fill="#1B1336" transform="translate(50,31)"/>
<path d="M0 0 C0.66 0.33 1.32 0.66 2 1 C2 2.98 2 4.96 2 7 C1.34 7 0.68 7 0 7 C-0.33 7.66 -0.66 8.32 -1 9 C-1.33 6.36 -1.66 3.72 -2 1 C-1.34 0.67 -0.68 0.34 0 0 Z " fill="#2A5598" transform="translate(59,13)"/>
<path d="M0 0 C2 2 2 2 2 5 C3.65 4.01 5.3 3.02 7 2 C6.67 3.32 6.34 4.64 6 6 C5.34 6 4.68 6 4 6 C3.67 6.99 3.34 7.98 3 9 C3 8.01 3 7.02 3 6 C2.34 6 1.68 6 1 6 C0.67 4.02 0.34 2.04 0 0 Z " fill="#254F93" transform="translate(114,94)"/>
<path d="M0 0 C0.33 0.66 0.66 1.32 1 2 C1.66 2 2.32 2 3 2 C2.67 2.99 2.34 3.98 2 5 C-1.5625 6.1875 -1.5625 6.1875 -5 7 C-5 6.01 -5 5.02 -5 4 C-3.35 4 -1.7 4 0 4 C0 2.68 0 1.36 0 0 Z " fill="#255298" transform="translate(112,88)"/>
<path d="M0 0 C0.99 0 1.98 0 3 0 C3.1875 3.375 3.1875 3.375 3 7 C2.01 7.66 1.02 8.32 0 9 C-0.5625 7.0625 -0.5625 7.0625 -1 5 C-0.67 4.67 -0.34 4.34 0 4 C0 2.68 0 1.36 0 0 Z " fill="#2A579D" transform="translate(66,74)"/>
<path d="M0 0 C2.31 1.65 4.62 3.3 7 5 C6.01 5.33 5.02 5.66 4 6 C4 6.66 4 7.32 4 8 C1.44971017 6.72485508 1.06918289 5.59658703 0 3 C0 2.01 0 1.02 0 0 Z " fill="#1C1F4B" transform="translate(90,77)"/>
<path d="M0 0 C0.99 0 1.98 0 3 0 C3.33 1.32 3.66 2.64 4 4 C2.02 4.66 0.04 5.32 -2 6 C-1.34 4.02 -0.68 2.04 0 0 Z " fill="#253D77" transform="translate(49,73)"/>
<path d="M0 0 C0.66 0 1.32 0 2 0 C2 0.99 2 1.98 2 3 C2.66 3 3.32 3 4 3 C4.33 4.98 4.66 6.96 5 9 C4.01 8.67 3.02 8.34 2 8 C1.26953125 6.15234375 1.26953125 6.15234375 0.8125 3.9375 C0.65394531 3.20402344 0.49539062 2.47054687 0.33203125 1.71484375 C0.22246094 1.14894531 0.11289063 0.58304687 0 0 Z " fill="#224483" transform="translate(98,68)"/>
<path d="M0 0 C0.8971875 0.5259375 0.8971875 0.5259375 1.8125 1.0625 C4.10813214 2.33304698 4.10813214 2.33304698 7 1 C7.33 1.99 7.66 2.98 8 4 C7.34 4 6.68 4 6 4 C6 4.66 6 5.32 6 6 C4.35 5.67 2.7 5.34 1 5 C0.67 3.35 0.34 1.7 0 0 Z " fill="#1B1D49" transform="translate(28,69)"/>
<path d="M0 0 C1.65 0 3.3 0 5 0 C4.814375 0.639375 4.62875 1.27875 4.4375 1.9375 C4.293125 2.618125 4.14875 3.29875 4 4 C4.33 4.33 4.66 4.66 5 5 C4.67 5.66 4.34 6.32 4 7 C1 5 1 5 0.3125 2.375 C0.209375 1.59125 0.10625 0.8075 0 0 Z " fill="#1F2554" transform="translate(85,56)"/>
<path d="M0 0 C3 2 3 2 3.6875 5.125 C3.790625 6.07375 3.89375 7.0225 4 8 C2.68 7.67 1.36 7.34 0 7 C0 6.01 0 5.02 0 4 C-0.33 3.01 -0.66 2.02 -1 1 C-0.67 0.67 -0.34 0.34 0 0 Z " fill="#285192" transform="translate(44,22)"/>
<path d="M0 0 C0.99 1.32 1.98 2.64 3 4 C2.01 4.66 1.02 5.32 0 6 C-0.66 6.99 -1.32 7.98 -2 9 C-2 6.36 -2 3.72 -2 1 C-1.34 0.67 -0.68 0.34 0 0 Z " fill="#150E29" transform="translate(43,24)"/>
<path d="M0 0 C-0.33 1.98 -0.66 3.96 -1 6 C-1.99 5.67 -2.98 5.34 -4 5 C-4.6875 2.9375 -4.6875 2.9375 -5 1 C-3 0 -3 0 0 0 Z " fill="#1D1D46" transform="translate(52,13)"/>
<path d="M0 0 C2.09350689 3.4019487 2.17942163 6.05272412 2 10 C1.71125 9.401875 1.4225 8.80375 1.125 8.1875 C-0.04742026 5.80672208 -0.04742026 5.80672208 -2 3 C-2.33 3.66 -2.66 4.32 -3 5 C-2.67 3.68 -2.34 2.36 -2 1 C-1.34 1.33 -0.68 1.66 0 2 C0 1.34 0 0.68 0 0 Z " fill="#1F0F33" transform="translate(87,69)"/>
<path d="M0 0 C0.33 0 0.66 0 1 0 C1.33 2.97 1.66 5.94 2 9 C1.01 9 0.02 9 -1 9 C-0.67 7.35 -0.34 5.7 0 4 C-0.66 4 -1.32 4 -2 4 C-1.34 2.68 -0.68 1.36 0 0 Z " fill="#1D1234" transform="translate(54,59)"/>
<path d="M0 0 C1.32 0 2.64 0 4 0 C4.33 1.65 4.66 3.3 5 5 C4.01 5.66 3.02 6.32 2 7 C0.5393715 4.35261084 0 3.10551666 0 0 Z " fill="#160616" transform="translate(95,54)"/>
<path d="M0 0 C1.32 0 2.64 0 4 0 C4.33 1.65 4.66 3.3 5 5 C4.01 5.33 3.02 5.66 2 6 C1.34 4.02 0.68 2.04 0 0 Z " fill="#1E3064" transform="translate(69,35)"/>
<path d="M0 0 C2.475 0.99 2.475 0.99 5 2 C4.34 3.32 3.68 4.64 3 6 C1.68 5.01 0.36 4.02 -1 3 C-0.67 2.01 -0.34 1.02 0 0 Z " fill="#203972" transform="translate(38,62)"/>
<path d="M0 0 C0.66 0.99 1.32 1.98 2 3 C1.125 6.6875 1.125 6.6875 0 10 C-0.33 9.01 -0.66 8.02 -1 7 C-1.66 6.67 -2.32 6.34 -3 6 C-2.34 6 -1.68 6 -1 6 C-0.67 4.02 -0.34 2.04 0 0 Z " fill="#274D8D" transform="translate(46,47)"/>
<path d="M0 0 C0.99 0.33 1.98 0.66 3 1 C3.33 1.99 3.66 2.98 4 4 C3.34 4.66 2.68 5.32 2 6 C1.34 6 0.68 6 0 6 C0 5.34 0 4.68 0 4 C-0.99 4.33 -1.98 4.66 -3 5 C-2 2 -2 2 0 0 Z " fill="#27579E" transform="translate(87,41)"/>
<path d="M0 0 C0.99 0.33 1.98 0.66 3 1 C2.6875 2.875 2.6875 2.875 2 5 C1.01 5.66 0.02 6.32 -1 7 C-1.04254356 5.00045254 -1.04080783 2.99958364 -1 1 C-0.67 0.67 -0.34 0.34 0 0 Z " fill="#191739" transform="translate(42,13)"/>
<path d="M0 0 C0.66 0.33 1.32 0.66 2 1 C3.26229508 5.47540984 3.26229508 5.47540984 2 8 C-0.7839183 6.60804085 -0.97898997 4.84424221 -2 2 C-1.34 2 -0.68 2 0 2 C0 1.34 0 0.68 0 0 Z " fill="#1C061C" transform="translate(103,118)"/>
<path d="M0 0 C2.62386487 3.06117568 3 3.73173127 3 8 C2.01 8.495 2.01 8.495 1 9 C-1.125 3.375 -1.125 3.375 0 0 Z " fill="#1A0B29" transform="translate(121,92)"/>
<path d="M0 0 C0.33 1.32 0.66 2.64 1 4 C1.66 4 2.32 4 3 4 C3 4.66 3 5.32 3 6 C1.35 6 -0.3 6 -2 6 C-1.34 4.02 -0.68 2.04 0 0 Z " fill="#1C1B48" transform="translate(71,80)"/>
<path d="M0 0 C0.66 0 1.32 0 2 0 C2.33 1.65 2.66 3.3 3 5 C1.35 4.67 -0.3 4.34 -2 4 C-1 1 -1 1 0 0 Z " fill="#2A589C" transform="translate(44,72)"/>
<path d="M0 0 C0.66 0.66 1.32 1.32 2 2 C1.625 5.625 1.625 5.625 1 9 C0.34 8.67 -0.32 8.34 -1 8 C-0.67 5.36 -0.34 2.72 0 0 Z " fill="#2A5EA2" transform="translate(112,63)"/>
<path d="M0 0 C0.99 0.495 0.99 0.495 2 1 C2.625 4.0625 2.625 4.0625 3 7 C2.01 7.66 1.02 8.32 0 9 C0 6.03 0 3.06 0 0 Z " fill="#1C1330" transform="translate(73,35)"/>
</svg>
